<?xml version="1.0" encoding="UTF-8" standalone="no"?>
<!-- Created with Inkscape (http://www.inkscape.org/) -->

<svg
   version="1.1"
   id="svg18"
   width="157.12"
   height="228.8"
   viewBox="0 0 157.12 228.8"
   xmlns="http://www.w3.org/2000/svg"
   xmlns:svg="http://www.w3.org/2000/svg">
  <defs
     id="defs22" />
  <g
     id="g24">
    <path
       style="fill:#000000;stroke-width:0.32"
       d="m 75.486267,225.6104 c 0,-0.073 1.764,-0.87497 3.92,-1.78215 2.156,-0.90718 4.496,-2.0461 5.2,-2.53094 l 1.28,-0.88152 -0.0499,-2.05633 c -0.0635,-2.61794 -1.25501,-19.25008 -1.8896,-26.37633 -0.57242,-6.42796 -1.24311,-11.85784 -1.73919,-14.08047 -0.45833,-2.05348 -3.43868,-11.40892 -4.21863,-13.24246 -0.62301,-1.46461 -4.45361,-5.47707 -5.22882,-5.47707 -0.23969,0 -1.04291,-0.72 -1.78494,-1.6 -1.08691,-1.28902 -1.54154,-1.59905 -2.33905,-1.5951 -0.54445,0.003 -1.178,0.1242 -1.4079,0.27001 -0.277,0.17568 -0.76779,-0.0847 -1.45501,-0.77192 -1.1409,-1.1409 -2.83481,-1.73847 -4.93573,-1.7412 -1.22015,-0.002 -1.52109,0.16178 -2.77212,1.50496 l -1.40338,1.50676 -3.06458,-0.0783 c -2.68178,-0.0685 -3.33482,0.0288 -5.22789,0.77904 -2.49868,0.99019 -3.58251,1.66941 -5.3633,3.36107 -1.21659,1.15571 -1.3434,1.20118 -2.56,0.91792 -0.704,-0.16391 -3.09368,-0.30146 -5.3104,-0.30565 -3.60505,-0.007 -4.09043,0.0587 -4.59919,0.62086 -1.04702,1.15695 -3.12652,1.70785 -5.85126,1.55012 -1.37037,-0.0793 -2.73504,-0.28048 -3.03259,-0.447 -0.36659,-0.20516 0.20581,-0.26505 1.77541,-0.18579 1.27403,0.0643 2.91774,-0.045 3.65268,-0.24284 1.30564,-0.35158 3.28535,-1.72423 3.28535,-2.27795 0,-0.59843 -2.93893,-1.95284 -5.48349,-2.52708 l -2.67651,-0.604 1.97917,-0.027 c 3.20267,-0.0437 4.86152,-1.09921 3.43283,-2.18437 -0.50195,-0.38124 -1.44568,-0.42633 -5.2483,-0.25075 -2.54996,0.11774 -4.551361,0.12914 -4.447545,0.0253 0.103815,-0.10381 1.470155,-0.34447 3.036305,-0.53479 3.86205,-0.46931 4.02985,-0.61041 2.15578,-1.81265 -1.31161,-0.84142 -3.05395,-1.5962 -8.392615,-3.63564 -1.636951,-0.62534 -0.378533,-0.50144 2.36438,0.2328 3.035935,0.81267 4.508975,0.94757 5.246625,0.48049 0.59717,-0.37812 0.22619,-1.24985 -0.67843,-1.59416 -2.01448,-0.76675 -3.21187,-1.33622 -3.08221,-1.46589 0.21379,-0.21379 6.42073,1.37137 6.78116,1.73181 0.19892,0.19891 0.71599,0.13922 1.44981,-0.1674 2.01803,-0.84318 1.99857,-1.61033 -0.0723,-2.85168 -1.6743,-1.00362 -1.40006,-1.00363 1.26616,-7e-5 3.08831,1.16243 3.70948,1.075 6.82031,-0.96 1.47975,-0.968 2.86704,-1.76 3.08287,-1.76 0.21583,0 0.64552,-0.38627 0.95485,-0.85838 1.68591,-2.57301 6.42459,-5.86161 8.44625,-5.86161 1.43735,0 3.08628,-0.77091 3.72103,-1.73966 0.48495,-0.74013 0.49625,-0.96351 0.10128,-2.00127 -0.67176,-1.76499 -1.18802,-1.70116 -1.0258,0.12684 l 0.13614,1.53409 -0.69402,-1.28 c -0.38172,-0.704 -0.74716,-1.33921 -0.8121,-1.41157 -0.0649,-0.0724 -0.8097,0.4516 -1.65501,1.16437 -0.84531,0.71278 -3.4741,2.53889 -5.84176,4.05803 -2.36766,1.51914 -4.66483,2.99713 -5.10483,3.28444 -0.49605,0.3239 -0.33827,0.0652 0.41526,-0.681 0.6684,-0.66186 1.45319,-1.56649 1.74399,-2.01031 0.51046,-0.77906 0.49827,-0.83312 -0.35311,-1.56544 l -0.88184,-0.75844 1.05785,0.0379 c 0.58182,0.0208 1.48984,0.13152 2.01784,0.246 1.25423,0.27192 3.3008,-0.78904 3.57565,-1.85365 0.31179,-1.20776 -0.59005,-1.62682 -3.55681,-1.65276 l -2.57884,-0.0226 1.28,-0.48221 c 1.25544,-0.47295 3.10596,-0.45047 5.99433,0.0728 0.94375,0.17098 1.23647,0.10656 1.39519,-0.30704 0.29599,-0.77132 -0.71306,-2.11847 -1.5868,-2.11847 -0.798,0 -2.97765,-0.7291 -6.23914,-2.087 -1.25788,-0.52372 -2.90945,-0.91265 -4.32,-1.01732 -2.19249,-0.1627 -2.34742,-0.12631 -3.88426,0.91242 -0.88038,0.59503 -3.25167,1.79548 -5.26955,2.66768 -2.01788,0.87219 -4.46557,2.1052 -5.43932,2.74002 -0.97374,0.63481 -2.922445,1.63662 -4.330445,2.22625 -1.408,0.58963 -3.172,1.47351 -3.92,1.96417 -1.4512405,0.95198 -1.7640435,0.82815 -0.72509,-0.28704 l 0.63491,-0.68149 -1.5149105,-0.21586 c -0.833201,-0.11869 -2.59491,-0.47167 -3.91491,-0.78438 l -2.4,-0.56856 3.54004,0.17103 c 4.0791295,0.19708 7.1863805,-0.35134 10.0433405,-1.7726 1.985325,-0.98765 2.691365,-1.83036 1.936615,-2.3115 -0.851967,-0.54311 -2.657342,-0.32527 -5.439995,0.65643 -3.7177545,1.31158 -7.2728885,1.37992 -9.7037705,0.18653 -0.910927,-0.4472 -1.818094,-1.07587 -2.015927,-1.39704 -0.306182,-0.49708 -0.116591,-0.46364 1.2743,0.2247 1.170179,0.57912 2.294161,0.84199 3.959698,0.9261 1.279134,0.0646 2.317252,-0.006 2.30693,-0.15753 -0.01032,-0.15124 -0.760126,-0.63819 -1.666227,-1.08211 -1.023267,-0.50132 -1.879344,-1.20417 -2.25949,-1.85507 -0.879545,-1.50599 -0.499478,-1.54647 0.94621,-0.10078 0.711641,0.71164 1.802443,1.40532 2.525491,1.60606 2.7002365,0.74964 6.5527855,0.2092 6.5527855,-0.91924 0,-0.9789 0.518149,-1.02505 1.570158,-0.13985 1.981177,1.66706 5.979667,1.52058 9.792927,-0.35875 2.06535,-1.01789 2.24284,-1.18475 2.24,-2.10576 -0.005,-1.4592 0.68424,-1.7655 2.81856,-1.25348 3.09298,0.74199 3.86055,-0.35419 0.93628,-1.33713 -3.77631,-1.26934 -10.21166,-1.46249 -13.23124,-0.39712 -0.6999,0.24694 -1.18993,0.31531 -1.08895,0.15192 0.10097,-0.16339 1.03219,-0.60648 2.06935,-0.98465 2.26379,-0.82542 3.25493,-1.78931 3.32272,-3.23138 0.0485,-1.03262 0.007,-1.07082 -1.27851,-1.16451 -0.73079,-0.0533 -2.19157,0.12672 -3.24619,0.4 -1.05462,0.27328 -2.2567,0.48774 -2.671295,0.47659 l -0.75381,-0.0203 0.8,-0.33095 c 0.44,-0.18202 1.807995,-0.61389 3.039995,-0.95971 2.71112,-0.761 3.5077,-1.24735 4.18352,-2.55425 0.65204,-1.26089 0.20344,-1.64875 -1.57766,-1.36402 -1.97081,0.31506 -7.946235,0.21874 -9.11282,-0.14689 -1.295264,-0.40596 -4.0034525,-1.95986 -3.7891675,-2.17414 0.08476,-0.0848 0.7624425,0.15623 1.5059565,0.53554 1.676867,0.85548 4.57935,1.20832 5.264189,0.63996 0.267293,-0.22183 0.491623,-0.7817 0.498512,-1.24415 0.01243,-0.83462 0.01572,-0.83347 0.446477,0.15619 0.737367,1.69412 4.280683,2.32184 6.561943,1.16249 1.36063,-0.69147 1.64221,-1.3595 0.57304,-1.3595 -0.87288,0 -2.82715,-1.20429 -3.04894,-1.87888 -0.0848,-0.25796 0.27132,-0.13159 0.86396,0.30656 0.83132,0.61462 1.3858,0.74132 3.15963,0.72194 2.22632,-0.0243 6.06256,-0.84864 6.62851,-1.4243 0.60074,-0.61106 -0.73043,-1.14774 -3.39884,-1.37028 -1.83261,-0.15283 -2.83673,-0.39906 -3.3845,-0.82994 -1.16647,-0.91754 -3.05367,-1.06703 -8.199552,-0.6495 -5.182717,0.42052 -7.7050405,0.13747 -8.7144565,-0.97792 -0.566645,-0.62614 -0.560615,-0.62715 0.671811,-0.11221 1.3800185,0.57661 4.4523085,0.74869 6.3282605,0.35444 1.013097,-0.21291 1.20294,-0.37532 1.12,-0.95814 -0.136645,-0.96021 -2.382667,-2.02773 -5.535394,-2.63095 -3.0620255,-0.585864 -3.5972375,-0.935314 -0.9644745,-0.629734 3.2485005,0.377064 4.5822265,0.761164 7.8598425,2.263564 2.591343,1.18783 3.277163,1.38595 3.810163,1.1007 0.3575,-0.19133 0.64999,-0.48348 0.64999,-0.64923 0,-0.5016 -1.34699,-1.21286 -3.04,-1.60523 -2.806541,-0.65044 -5.539421,-1.612334 -5.934959,-2.088924 -0.429594,-0.517631 0.02797,-0.640965 0.526905,-0.14203 0.356767,0.35677 5.946354,1.648434 6.169184,1.425604 0.0779,-0.0779 -0.1335,-0.449164 -0.46975,-0.825054 -0.56199,-0.62823 -0.47653,-0.61546 1.05799,0.15804 2.55893,1.289874 3.4792,1.102694 2.57063,-0.52287 -1.17159,-2.096152 -2.14817,-2.643413 -6.116576,-3.427634 -1.60788,-0.317744 -2.599419,-0.593536 -2.203419,-0.612867 0.792948,-0.03871 0.941331,-0.635187 0.32,-1.286359 -0.22,-0.230566 0.176,-0.1355 0.88,0.211255 0.972988,0.479248 2.264135,0.681088 5.383085,0.841517 l 4.10308,0.211046 -0.10308,-0.713187 c -0.0653,-0.451882 -0.39619,-0.783034 -0.90309,-0.903824 -0.78405,-0.186839 -0.77869,-0.198131 0.26887,-0.566535 1.32501,-0.465974 1.18186,-1.128652 -0.2943,-1.362339 -0.99059,-0.156816 -1.02617,-0.196861 -0.37457,-0.421565 0.9241,-0.318668 0.9241,-1.269622 0,-1.89207 l -0.72,-0.484976 0.88,0.163248 c 0.71888,0.13336 0.88,0.04714 0.88,-0.470899 0,-0.348784 -0.30015,-1.015731 -0.66699,-1.482103 -0.46924,-0.596537 0.21863,-0.248236 2.32,1.174717 1.64284,1.112467 3.66515,2.211706 4.49401,2.442749 1.58794,0.44264 3.13298,0.26567 3.13298,-0.358854 0,-0.618279 -7.89293,-8.070845 -10.26238,-9.689818 -2.61588,-1.787357 -3.61144,-2.060995 -7.657615,-2.104781 -3.114167,-0.0337 -3.292519,-0.100681 -1.2,-0.450665 0.973208,-0.162775 1.2,-0.337296 1.2,-0.923434 0,-0.86665 -1.542424,-2.418909 -3.52,-3.542445 -1.706139,-0.969321 -1.476814,-1.102493 0.32,-0.185827 1.603564,0.818077 1.917938,0.80504 1.928997,-0.08 0.0064,-0.508512 0.311837,-0.158224 1.04,1.192541 0.576654,1.069712 1.499648,2.226032 2.094448,2.62391 1.03713,0.693763 3.74293,1.323837 4.10977,0.957002 0.6681,-0.668103 -0.80716,-2.530429 -4.853215,-6.126535 l -0.96,-0.853241 1.274283,0.823161 c 1.666102,1.076266 1.887632,1.038522 1.272762,-0.216838 -0.46052,-0.940218 -0.37688,-0.895085 0.87178,0.470426 1.41147,1.543555 2.57951,2.070966 3.75808,1.696905 1.03639,-0.328941 0.82031,-1.587187 -0.53691,-3.126409 -0.66,-0.748506 -0.94983,-1.164813 -0.64407,-0.92512 0.77469,0.607289 1.52407,0.225046 1.52407,-0.777399 0,-1.251184 -0.79791,-2.708793 -2.57315,-4.700563 -0.87276,-0.979222 -1.58685,-1.845562 -1.58685,-1.925197 0,-0.07964 1.73656,-0.21631 3.85901,-0.303725 4.07093,-0.16766 5.15635,-0.5367 4.02834,-1.369619 -0.51516,-0.380387 -0.21665,-0.429878 2.28265,-0.378457 2.35942,0.04854 2.98861,-0.04276 3.50677,-0.508916 0.57627,-0.518416 0.66858,-0.523363 1.05594,-0.05661 0.67435,0.812538 2.57743,1.659725 4.72453,2.1032 2.44004,0.503981 2.88273,0.231543 2.20407,-1.356403 -0.67923,-1.589265 -1.98947,-2.665598 -4.86259,-3.994503 l -2.55872,-1.183488 -2.56,0.529424 c -1.408,0.29118 -3.136,0.527952 -3.84,0.526153 -1.47659,-0.0038 -3.57268,-0.527177 -3.83939,-0.958723 -0.10039,-0.162429 0.26431,-0.139558 0.81044,0.05082 1.53165,0.53394 6.07368,0.191245 7.35076,-0.554611 0.58675,-0.342678 1.12706,-0.803782 1.20069,-1.024672 0.17917,-0.537518 -1.56228,-1.228843 -3.9225,-1.557156 l -1.92,-0.267082 1.76,-0.164137 c 1.95806,-0.182608 2.35368,-0.804884 0.96,-1.509972 -1.0647,-0.538649 -0.69821,-0.516323 1.79187,0.109165 1.60794,0.403904 2.26194,0.441981 2.86576,0.166861 1.17108,-0.533578 0.96497,-1.482397 -0.71128,-3.274448 -0.82151,-0.878259 -1.25472,-1.505149 -0.9627,-1.393088 0.76459,0.293398 0.99247,-0.591878 0.43086,-1.673773 -0.25949,-0.499885 -1.13391,-1.403645 -1.94316,-2.008355 -0.80924,-0.60471 -1.47135,-1.160323 -1.47135,-1.234691 0,-0.560391 12.49367,5.132368 12.76685,5.817232 0.0698,0.174902 1.24187,1.50176 2.60469,2.948579 1.89977,2.016877 2.60722,3.029251 3.03242,4.339462 0.74986,2.310612 1.71107,3.240375 4.93786,4.776308 1.506,0.716844 3.05153,1.59502 3.43449,1.951494 0.38298,0.356477 0.85098,0.552554 1.04,0.435728 0.58503,-0.361562 0.36047,-1.789827 -0.89608,-5.699421 -1.16728,-3.631853 -1.25997,-3.79695 -2.62512,-4.67591 -0.77831,-0.501123 -2.49511,-1.882583 -3.81511,-3.069911 -4.15378,-3.736297 -8.06652,-5.96592 -11.52,-6.564521 -1.39924,-0.242538 -1.40747,-0.250666 -0.29085,-0.287239 0.63203,-0.0207 1.853,0.174192 2.71326,0.433095 0.93015,0.279933 1.68119,0.35367 1.85294,0.18192 0.3014,-0.301402 7.07148,4.636547 8.52465,6.217702 0.96142,1.046083 2.45759,1.874234 2.69426,1.491299 0.0938,-0.151801 -0.24893,-1.051273 -0.76167,-1.998828 -0.55696,-1.029277 -1.43802,-3.789911 -2.1886,-6.857623 -1.06088,-4.335885 -1.57823,-5.874006 -2.8904,-8.59344 -0.0765,-0.158528 0.40092,0.309472 1.0609,1.04 1.7902,1.981533 2.40551,1.71297 2.40551,-1.049923 0,-1.551287 -0.86761,-2.925718 -3.34678,-5.30184 -0.82635,-0.792 -1.65219,-1.728 -1.8352,-2.08 -0.18301,-0.352 0.44006,0.0995 1.38461,1.003334 1.88815,1.806742 3.15737,2.617921 3.15737,2.017911 0,-0.198699 -0.792,-1.878061 -1.76,-3.731915 -0.968,-1.853855 -1.75363,-3.532349 -1.74585,-3.729988 0.008,-0.197638 0.28812,0.144657 0.62298,0.760657 1.00848,1.855175 2.09077,3.011776 2.55171,2.726903 0.30672,-0.189567 0.36617,-0.848982 0.22821,-2.53162 -0.12739,-1.553897 -0.0918,-2.043353 0.11215,-1.543766 0.16429,0.402334 0.42916,2.364087 0.58861,4.35945 0.32366,4.050305 1.28041,6.776105 2.93469,8.361008 l 0.91345,0.875136 0.25703,-0.923555 c 0.41415,-1.488127 0.24276,-5.591004 -0.30593,-7.323555 -0.27869,-0.88 -1.10314,-3.162893 -1.83212,-5.073094 -0.72897,-1.910202 -1.27471,-3.523791 -1.21274,-3.585755 0.062,-0.06196 0.98691,1.788928 2.05544,4.113093 1.06852,2.324165 2.07093,4.153756 2.22757,4.065756 0.15664,-0.088 0.23926,-1.888001 0.18359,-4.000001 -0.0557,-2.112 0.0432,-4.2 0.21972,-4.64 0.26082,-0.650155 0.32473,-0.36935 0.34121,1.499168 0.0251,2.850994 0.38534,3.859633 1.47605,4.133383 1.1533,0.28946 1.61651,-0.275044 2.24638,-2.73759 0.4012,-1.568573 0.49842,-3.083665 0.40437,-6.301981 -0.0681,-2.3303187 -0.0905,-4.2036315 -0.0498,-4.1629189 0.0407,0.040713 0.40571,1.0046042 0.81111,2.1419809 0.6393,1.793626 0.84288,2.067958 1.53463,2.067958 h 0.79753 l -0.041,-3.1999997 c -0.0274,-2.1341789 0.0367,-2.7948979 0.19228,-1.983729 0.41448,2.161119 1.27669,2.335097 2.1078,0.4253136 0.78648,-1.8072368 0.53432,0.167217 -0.30672,2.4016564 -0.49355,1.3112357 -0.79187,2.8387747 -0.83549,4.2780987 -0.0993,3.276061 -0.048,3.679137 0.49505,3.887513 0.69744,0.267631 1.67334,-0.726151 2.71904,-2.768853 0.49554,-0.968 1.41614,-2.162415 2.04578,-2.654256 1.70976,-1.335575 2.49889,-3.1127137 2.36971,-5.3366819 -0.0848,-1.4603312 -0.0106,-1.8262676 0.36538,-1.8008992 0.26619,0.017962 0.64186,-0.456304 0.86194,-1.0881626 0.63559,-1.8247736 0.48953,-0.6794515 -0.69377,5.44 -1.41615,7.3236847 -1.42812,8.3437447 -0.0919,7.8310027 1.30086,-0.499188 2.97429,-5.93788 3.50932,-11.4054257 0.22266,-2.2753949 0.47996,-3.6408206 0.63987,-3.3956448 0.20145,0.3088566 0.42931,0.2126153 0.92321,-0.3899318 l 0.65574,-0.8 -0.63138,1.2948838 c -0.34726,0.7121862 -0.73143,1.8281862 -0.85371,2.48 -0.21506,1.1463491 -0.19186,1.1851158 0.70928,1.1851158 0.93445,0 1.69961,0.4898144 1.69961,1.088 0,0.1777779 -0.17066,0.1493334 -0.384,-0.064 -1.23745,-1.2374512 -2.35785,0.140601 -2.98785,3.6749657 -0.59623,3.344829 -0.5984,4.901034 -0.007,4.901034 0.67299,0 3.33464,-3.600976 4.72241,-6.3890117 0.66005,-1.3260437 1.20374,-2.1532514 1.2082,-1.8382398 0.004,0.3150115 0.30656,1.1577968 0.67136,1.8728568 0.5454,1.0690717 0.79698,1.2745477 1.41572,1.1562687 0.69748,-0.133333 0.74838,-0.04807 0.69673,1.167143 -0.051,1.198852 0.0127,1.311363 0.74428,1.315426 1.04388,0.0058 1.22582,1.287214 0.46544,3.278213 -0.41699,1.091894 -0.45449,1.486337 -0.15868,1.669158 0.25883,0.159969 0.13949,0.305758 -0.35971,0.439421 -1.48385,0.39731 -1.61466,0.05192 -0.54779,-1.446366 1.30933,-1.83878 -0.3204,-4.253313 -1.66641,-2.468873 -0.4197,0.556412 -0.4796,0.895055 -0.23812,1.346262 0.2549,0.476274 0.15344,0.78078 -0.48322,1.450296 -0.44322,0.466095 -0.89797,1.22044 -1.01054,1.67632 -0.16552,0.670269 -0.0372,0.938605 0.67052,1.402328 0.80568,0.527905 0.90554,0.531965 1.25714,0.05113 0.73496,-1.00512 1.11137,-0.574332 1.11137,1.271908 0,1.504641 0.0817,1.762887 0.50618,1.600001 0.27839,-0.10683 0.56639,-0.194236 0.64,-0.194236 0.0736,0 0.15086,-0.54 0.17168,-1.200001 0.0208,-0.66 0.14779,-1.632 0.28214,-2.16 0.24013,-0.943669 0.24493,-0.939049 0.28215,0.271639 0.0539,1.754309 0.87735,3.276489 2.50595,4.632479 0.77676,0.646736 1.71449,1.679883 2.08386,2.295883 1.39534,2.327031 2.87303,3.276899 3.31323,2.129757 0.32971,-0.859214 -0.45712,-5.327238 -1.23883,-7.034721 -0.44069,-0.962607 -0.88621,-2.232784 -0.99004,-2.822616 l -0.18878,-1.072425 0.35799,0.96 c 0.93529,2.508127 2.14918,2.444011 2.25645,-0.119182 0.0341,-0.81445 0.14208,-0.04082 0.24,1.719182 0.16639,2.990925 0.2241,3.206555 0.88318,3.300312 0.6116,0.087 0.77318,-0.146501 1.21787,-1.76 0.87513,-3.17534 0.95628,-3.097714 0.98079,0.93822 0.0325,5.352378 1.051833,8.881469 2.565263,8.881469 1.3209,0 1.84934,-1.274026 1.63099,-3.932228 -0.15157,-1.84524 -0.11829,-2.147433 0.16604,-1.507772 0.19557,0.44 0.34455,2.264662 0.33104,4.054803 -0.0388,5.147197 0.41157,5.171059 2.3043,0.122087 0.8611,-2.297056 1.61532,-4.126787 1.67603,-4.066071 0.0607,0.06072 -0.26758,1.392621 -0.72956,2.959788 -1.5757,5.345249 -1.72031,6.050593 -1.69953,8.289393 0.0114,1.232 0.1932,2.811917 0.40391,3.510925 l 0.38311,1.270925 0.72407,-1.016848 c 1.70635,-2.396359 2.09876,-3.852528 2.21906,-8.234567 0.11597,-4.22411 0.39745,-5.986173 0.40636,-2.543769 0.007,2.64087 0.34018,3.037292 1.39316,1.656768 0.46208,-0.605824 1.05872,-1.664436 1.32587,-2.352468 0.35027,-0.902145 0.43513,-0.993948 0.30432,-0.329232 -0.0998,0.506954 -0.76266,2.282231 -1.4731,3.945056 -0.71044,1.662829 -1.21931,3.095716 -1.13083,3.184192 0.31118,0.311188 1.455,-0.540614 2.96385,-2.20718 1.8141,-2.003732 1.28185,-1.210461 -1.08549,1.61784 -0.93353,1.115296 -1.83353,2.38606 -2,2.823916 -0.63365,1.666628 -0.16938,3.954442 0.80248,3.954442 0.24345,0 0.75413,-0.504 1.13484,-1.12 0.38071,-0.616 0.73862,-1.12 0.79536,-1.12 0.0567,0 -0.16376,0.702445 -0.48998,1.560992 -0.32622,0.858544 -0.95856,3.757629 -1.40521,6.442406 -0.50015,3.006381 -1.11304,5.538794 -1.59559,6.592816 -0.44969,0.98226 -0.65384,1.79154 -0.47916,1.899498 0.1674,0.103453 1.22383,-0.694829 2.34763,-1.773962 1.48736,-1.428236 2.10061,-2.267625 2.25398,-3.085155 0.15138,-0.806925 0.88773,-1.831744 2.61566,-3.640349 2.14591,-2.246092 2.45397,-2.72726 2.85978,-4.466822 0.25014,-1.072266 0.73128,-2.49151 1.06919,-3.153882 0.64287,-1.260115 2.91067,-3.533081 4.22217,-4.231782 0.42139,-0.224496 -0.0513,0.340176 -1.05051,1.254829 -2.38452,2.182806 -3.88483,5.305363 -2.85493,5.941878 0.41555,0.256819 4.35762,-1.015597 6.51161,-2.101808 1.012,-0.510329 1.84,-0.862477 1.84,-0.782547 0,0.07993 -1.7051,1.02665 -3.78912,2.103827 -2.08401,1.077175 -4.30082,2.455517 -4.92624,3.062983 -1.06173,1.031257 -1.77638,2.552 -1.38378,2.944601 0.0946,0.0946 0.91014,-0.06639 1.81232,-0.35776 2.16162,-0.698125 2.68494,-0.662345 1.08682,0.07431 -0.704,0.324509 -2.216,1.344205 -3.36,2.265994 -1.144,0.921789 -2.584,1.937859 -3.2,2.257936 -0.616,0.320077 -1.984,1.465306 -3.04,2.544954 -1.056,1.079648 -2.37045,2.243808 -2.921,2.58702 -0.89579,0.558432 -1.0892,0.975965 -1.84,3.972285 -1.19408,4.765331 -1.08298,6.794925 0.28896,5.278938 0.31543,-0.348538 1.66668,-1.266285 3.00277,-2.039431 2.95221,-1.708332 3.69803,-2.482172 4.1942,-4.351766 0.5459,-2.056979 1.1667,-3.152486 2.75838,-4.867571 0.76949,-0.829165 1.5644,-1.870397 1.76645,-2.31385 0.20205,-0.443453 0.62824,-0.889075 0.94709,-0.990275 0.31885,-0.101197 2.13299,-1.1308 4.03144,-2.288003 3.49113,-2.128039 5.71875,-3.280435 6.36599,-3.293274 0.19486,-0.0039 -0.34514,0.6924 -1.2,1.547258 -1.10804,1.108048 -1.55428,1.807808 -1.55428,2.437321 0,0.725984 0.11402,0.853223 0.64107,0.715392 0.48589,-0.127059 0.32727,0.188855 -0.65524,1.305044 -2.29481,2.607049 -1.23947,3.97335 2.17136,2.811161 1.84616,-0.629049 2.00515,-0.629238 1.10866,-0.0013 -1.00492,0.703872 -0.60162,1.0948 1.15304,1.117674 l 1.50111,0.01955 -2.37582,0.700432 c -1.3067,0.385238 -2.43164,0.871254 -2.49987,1.080038 -0.43024,1.316576 4.8781,2.203251 7.59569,1.268739 1.14241,-0.392844 1.31557,-0.402291 0.83792,-0.04572 -1.16728,0.871399 -3.95535,1.218496 -6.49575,0.808685 -2.22741,-0.359318 -2.42555,-0.339379 -4.02249,0.404829 -2.46653,1.149453 -4.21715,2.552867 -4.85121,3.889065 -0.78287,1.649767 -0.50487,2.17873 1.00735,1.916727 1.74294,-0.301978 4.46119,-1.585703 4.92279,-2.324851 0.36762,-0.588644 0.45337,-0.599152 1.15228,-0.141207 0.7357,0.482042 3.49748,0.446039 5.84911,-0.07625 0.76973,-0.170956 0.77276,-0.165619 0.08,0.141037 -0.396,0.175293 -0.72,0.539354 -0.72,0.809027 0,0.400189 0.51465,0.497229 2.8,0.527949 2.54508,0.03421 2.65979,0.06119 1.25994,0.296343 -0.84704,0.142288 -1.89104,0.488668 -2.32,0.769737 -0.42897,0.281069 -0.77994,0.385587 -0.77994,0.232259 0,-0.481014 -2.61204,-1.481433 -3.86795,-1.481433 -0.68866,0 -1.46145,0.235773 -1.81169,0.552729 -0.3961,0.358471 -1.13891,0.552727 -2.11355,0.552727 -1.66477,0 -4.72981,0.960857 -5.96681,1.870534 -1.30565,0.960163 -2.18444,2.533379 -2.40609,4.307395 -0.11446,0.9161 -0.39405,1.919927 -0.62131,2.230727 -0.22726,0.310797 -1.67833,0.992726 -3.22459,1.515398 -1.54626,0.522669 -3.04013,1.154179 -3.3197,1.403357 -0.27957,0.249178 -1.10715,0.612454 -1.83908,0.807283 -1.73445,0.461687 -3.12722,2.05064 -3.56801,4.070608 -0.18659,0.855085 -0.42461,3.196947 -0.52892,5.204144 -0.13251,2.549754 -0.41561,4.333635 -0.93946,5.92 -0.79783,2.415987 -1.24266,4.990556 -0.86226,4.990556 0.12633,0 0.64356,-0.432 1.14942,-0.960004 0.50586,-0.528 1.06708,-0.96 1.24715,-0.96 0.18008,0 1.19713,-0.904245 2.26013,-2.009438 2.08337,-2.166071 3.35095,-2.79032 9.21192,-4.536615 2.21162,-0.65896 2.9133,-1.016646 3.34275,-1.70399 0.29894,-0.478474 0.87537,-1.157955 1.28097,-1.509955 0.48662,-0.422333 0.84549,-1.238589 1.05516,-2.4 0.47104,-2.609207 1.24005,-4.16 2.06286,-4.16 0.67401,0 1.18284,-0.236999 4.65906,-2.170039 0.968,-0.538281 2.624,-1.201072 3.68,-1.47287 1.056,-0.271795 2.15464,-0.78184 2.44141,-1.13343 0.29298,-0.359191 0.62234,-1.590935 0.75177,-2.81146 0.30095,-2.837907 0.77271,-3.901052 2.59606,-5.850361 1.72566,-1.844861 2.27821,-1.907664 0.84987,-0.0966 -1.6192,2.053059 -2.31667,3.408572 -2.31791,4.504796 -0.001,1.203668 0.6823,1.649946 1.51012,0.98576 0.29874,-0.239692 0.0689,0.16113 -0.51072,0.890711 -1.36416,1.71704 -1.28975,2.790221 0.20344,2.934064 1.07873,0.103917 2.06687,-0.632871 3.3536,-2.500576 l 0.55116,-0.8 -0.32335,0.924381 c -0.4444,1.270419 -0.2436,1.328316 1.01437,0.292483 0.5941,-0.489194 0.0349,0.240819 -1.24261,1.622253 -2.11325,2.285116 -3.00566,3.7791 -2.5372,4.247555 0.0973,0.09728 0.77929,0.07509 1.51559,-0.04931 1.69919,-0.287075 3.56919,-1.934454 4.13214,-3.640214 0.3599,-1.090522 0.49705,-1.219658 0.977,-0.919927 0.43994,0.274746 0.87182,0.16496 2.03679,-0.51776 1.97709,-1.158649 1.8882,-0.849107 -0.12762,0.444445 -1.91187,1.226842 -2.87391,2.364742 -2.87391,3.399248 0,0.654051 0.16298,0.762339 1.2,0.797302 0.72516,0.02445 0.0824,0.203076 -1.62434,0.451418 -1.55338,0.226029 -3.14402,0.491197 -3.53474,0.589261 -2.15973,0.542057 -12.18986,10.701216 -11.56443,11.713187 0.61788,0.999754 3.55275,-0.09645 6.4132,-2.395386 2.90984,-2.338627 2.9073,-2.33702 2.29504,-1.447734 -0.2996,0.435158 -0.54473,1.062771 -0.54473,1.394688 0,0.495558 0.15422,0.564784 0.86228,0.387069 l 0.86229,-0.216419 -0.7532,0.609904 c -0.8273,0.66991 -0.68682,1.228563 0.42138,1.675696 0.66177,0.267011 0.65759,0.278227 -0.11275,0.302476 -1.9827,0.06241 -2.0387,1.27592 -0.0611,1.324244 l 1.18111,0.02886 -1.00588,0.291446 c -1.05272,0.305021 -1.66412,1.206195 -1.0682,1.57449 0.19117,0.118153 1.38405,0.02925 2.65084,-0.197584 1.26678,-0.226823 2.80724,-0.420519 3.42324,-0.430436 0.616,-0.0099 1.564,-0.28878 2.10667,-0.619696 l 0.98666,-0.601667 v 0.894525 c 0,0.801578 -0.136,0.914922 -1.30886,1.090803 -1.60339,0.240445 -4.315,1.475332 -5.03954,2.295046 -0.70658,0.7994 -1.05368,2.23566 -0.60699,2.51172 0.19238,0.1189 1.1555,-0.2448 2.14027,-0.80822 1.55208,-0.88802 1.7433,-0.93626 1.43613,-0.36232 -0.19488,0.36416 -0.35434,0.72423 -0.35434,0.80017 0,0.2952 4.29516,-1.0723 5.39628,-1.71808 l 1.16372,-0.682504 -0.72995,0.783514 c -0.43221,0.46392 -1.95633,1.20623 -3.73657,1.81988 -3.53789,1.2195 -4.20134,1.63009 -3.90055,2.41394 0.31125,0.81109 1.47033,0.49099 4.50276,-1.2435 2.42471,-1.38689 6.63655,-2.68539 7.6145,-2.34754 0.22539,0.0779 -0.3577,0.30829 -1.29577,0.51205 -2.22916,0.48419 -4.66171,1.54291 -5.38735,2.34474 -0.55886,0.61752 -0.55755,0.65468 0.0383,1.09041 0.85639,0.62621 3.82069,0.55248 5.84004,-0.14525 1.79842,-0.6214 1.95851,-0.36787 0.31426,0.49769 -0.80047,0.42138 -2.30242,0.5789 -6.98557,0.73261 -5.77427,0.18953 -6.00739,0.2233 -7.25873,1.05139 -0.80749,0.53437 -2.10222,0.98487 -3.44874,1.19998 -2.43931,0.38966 -2.68667,0.4929 -2.68667,1.12121 0,0.65106 2.28067,1.16835 5.20752,1.18113 2.09774,0.009 2.68764,-0.1064 3.46064,-0.6779 0.51251,-0.37892 0.93184,-0.56295 0.93184,-0.40895 0,0.43759 -1.0365,1.26768 -2.18689,1.75138 -0.94179,0.396 -0.99479,0.48463 -0.52355,0.87572 0.28836,0.23932 1.40145,0.49858 2.47353,0.57612 2.28815,0.16551 3.87183,-0.49852 4.35962,-1.82796 l 0.30677,-0.83609 0.0252,0.84576 c 0.0443,1.48148 1.8356,1.65145 4.47178,0.42429 2.08048,-0.96848 2.47354,-0.82192 0.78285,0.29191 -1.85442,1.22171 -4.57786,1.79804 -8.49658,1.79804 -3.26501,0 -3.45277,0.0356 -3.45277,0.65454 0,1.10849 1.35392,2.12683 3.3917,2.55103 3.26201,0.67906 4.35896,0.99043 4.16666,1.18273 -0.10243,0.10244 -1.46166,0.003 -3.0205,-0.22001 -4.08236,-0.58514 -5.1528,0.11149 -3.39016,2.20627 0.53353,0.63406 1.41495,1.15629 2.48,1.46938 0.90876,0.26714 1.8683,0.64112 2.1323,0.83107 0.38427,0.27648 0.35236,0.29856 -0.16,0.11071 -0.352,-0.12906 -1.88174,-0.30339 -3.39943,-0.38739 -4.4036,-0.24374 -10.43147,1.2407 -11.41168,2.81027 -0.36614,0.58628 -0.30837,0.63171 0.8084,0.63577 2.78947,0.0101 2.81195,0.40567 0.0548,0.96387 -1.60833,0.32561 -3.72657,1.06118 -5.25351,1.8243 -1.40722,0.70329 -3.13458,1.46354 -3.83858,1.68945 -1.43169,0.45943 -1.74797,0.79065 -1.7551,1.83801 -0.006,0.8486 -0.0247,0.84656 2.2351,0.24 1.93026,-0.51811 4.28088,-0.58933 5.28,-0.16 0.46315,0.19902 0.14474,0.28123 -1.15225,0.29751 -3.97326,0.0499 -5.41595,1.69706 -2.64407,3.01887 1.08559,0.51769 1.80195,0.51754 4.27632,-9.6e-4 l 0.8,-0.16761 -0.72,0.76667 c -0.396,0.42167 -0.72,0.89269 -0.72,1.04672 0,0.15402 0.756,0.99291 1.68,1.86419 1.7018,1.6047 1.62333,1.65908 -0.4,0.27721 -0.616,-0.42071 -2.49682,-1.4586 -4.17961,-2.30642 -1.68278,-0.84783 -3.69878,-2.02816 -4.48,-2.62296 -2.25378,-1.71599 -2.16893,-1.71018 -2.84183,-0.1947 l -0.61335,1.38138 -0.0226,-1.424 c -0.028,-1.76613 -0.7247,-1.34151 -0.7841,0.47792 -0.0528,1.61564 0.97985,2.35615 3.76765,2.70189 2.50447,0.31059 4.8383,1.57177 7.17818,3.87899 0.82262,0.81114 1.82106,1.57729 2.21877,1.70255 0.39771,0.12526 1.69142,0.7936 2.87492,1.4852 1.1835,0.6916 2.51411,1.25356 2.9569,1.2488 0.44279,-0.005 1.80893,-0.43676 3.03585,-0.96 1.22692,-0.52324 2.29253,-0.95135 2.36801,-0.95135 0.0755,0 -0.46036,0.43291 -1.19077,0.96201 -0.7304,0.5291 -1.32801,1.18445 -1.32801,1.45633 0,0.27188 0.53287,0.71697 1.18415,0.98909 1.08381,0.45285 1.26207,0.44874 2.10368,-0.0484 1.1029,-0.6515 5.73485,-2.11933 5.50275,-1.74378 -0.0897,0.14508 -0.95222,0.6499 -1.9168,1.12182 -1.86957,0.9147 -2.02273,1.12137 -1.28485,1.73376 0.61676,0.51186 2.50212,0.19191 5.69107,-0.96578 1.364,-0.49518 2.48,-0.82993 2.48,-0.74389 0,0.086 -1.692,0.95098 -3.76,1.92209 -3.66668,1.72182 -5.84,3.07016 -5.84,3.62319 0,0.15061 1.404,0.39107 3.12,0.53434 l 3.12,0.26049 -3.89971,0.20959 c -4.78548,0.25729 -5.5403,0.42677 -5.5403,1.24409 0,0.98337 1.09569,1.34988 3.46213,1.1581 l 2.13787,-0.17325 -1.6,0.48509 c -4.25548,1.2902 -6.13642,2.39889 -5.75521,3.3923 0.51335,1.33778 4.91506,2.17119 7.67521,1.4532 0.68086,-0.17711 0.82043,-0.15632 0.48,0.0715 -0.88099,0.58959 -3.8639,1.03497 -5.46076,0.81535 -0.86802,-0.11939 -2.08888,-0.56361 -2.71302,-0.98716 -1.11171,-0.75443 -1.20771,-0.76365 -4.7205,-0.45329 -1.97215,0.17424 -4.07211,0.45749 -4.66659,0.62943 -0.73243,0.21185 -1.28662,0.20253 -1.7191,-0.0289 -0.35102,-0.18787 -1.04763,-0.25969 -1.54802,-0.15961 -1.32013,0.26403 -3.16344,1.55009 -3.16805,2.21032 -0.006,0.88467 1.24742,1.1567 4.67574,1.01466 l 3.1603,-0.13094 -2.06817,0.47836 c -1.13749,0.26309 -2.20044,0.61062 -2.36211,0.77228 -0.41327,0.41327 1.54236,1.1716 4.51377,1.7503 1.36208,0.26527 3.12451,0.61466 3.91651,0.77643 l 1.44,0.29414 -1.92,0.0329 c -3.74589,0.0641 -8.4134,-1.3455 -11.68168,-3.52797 -1.87304,-1.25077 -1.98794,-1.28281 -3.83235,-1.06874 l -1.90142,0.22068 0.51016,0.7786 c 0.44637,0.68124 0.0506,0.5542 -3.1651,-1.01606 -2.88919,-1.41082 -4.1131,-1.83377 -5.72243,-1.97754 -1.12595,-0.10058 -2.35351,-0.38183 -2.72792,-0.62501 -1.57234,-1.02122 -2.73467,-1.1035 -4.91926,-0.34824 -1.144003,0.39551 -2.289773,1.00917 -2.546153,1.36369 -0.25638,0.35451 -0.88246,1.06573 -1.39128,1.58047 -0.85547,0.86543 -2.08967,4.4011 -2.92456,8.37816 -0.26059,1.24135 0.50193,13.00173 1.74063,26.84594 0.51967,5.808 1.10112,13.008 1.29211,16 0.191,2.992 0.40556,5.61836 0.47681,5.83634 0.0712,0.21799 1.74974,1.19811 3.729963,2.17806 3.57517,1.76922 4.42179,2.27927 4.42323,2.66478 9.6e-4,0.28908 -4.34425,0.11648 -11.520753,-0.4576 -5.72435,-0.45791 -6.53087,-0.45598 -9.76,0.0233 -1.936,0.28738 -4.384,0.7257 -5.44,0.97406 -1.89102,0.44474 -3.36,0.58827 -3.36,0.32829 z m 13.69084,-62.26727 c 0.41566,-1.32 0.97253,-4.056 1.23749,-6.08 0.26496,-2.024 0.62217,-4.112 0.7938,-4.64 0.17162,-0.528 0.44878,-2.80639 0.6159,-5.06308 0.29204,-3.9436 0.27401,-4.17993 -0.46388,-6.08 -0.42225,-1.08731 -0.86115,-2.6188 -0.97534,-3.40333 -0.24113,-1.65671 -1.23577,-4.04364 -2.07084,-4.9696 -0.43505,-0.48239 -0.68407,-1.64771 -0.99241,-4.64399 -0.58041,-5.64018 -0.88162,-6.22227 -2.45493,-4.74422 -0.46554,0.43735 -0.73921,1.06135 -0.73683,1.68 0.005,1.37701 0.73491,3.94827 1.54912,5.45948 0.85325,1.58368 0.85265,1.61416 -0.0668,3.36729 -0.4571,0.87153 -0.77411,2.06311 -0.80521,3.02665 -0.0722,2.23606 -0.5075,2.50689 -1.74579,1.08608 -0.5583,-0.64059 -1.34337,-1.33195 -1.74459,-1.53634 -0.66871,-0.34066 -0.76967,-0.2755 -1.21141,0.78173 -0.26504,0.63434 -0.56372,1.56248 -0.66373,2.06252 -0.22975,1.14876 0.72386,8.23403 1.34528,9.99532 0.25716,0.72888 0.67776,3.2819 0.93466,5.67337 0.2569,2.39146 0.71033,5.18743 1.00763,6.21326 0.50188,1.73171 0.67991,1.9549 2.48881,3.12004 2.69557,1.73626 3.03679,1.62377 3.95909,-1.30518 z m 34.461743,-3.32164 2.16714,-1.11017 -2.32934,-1.17303 c -1.94834,-0.98118 -2.67456,-1.17696 -4.43986,-1.19695 -1.16079,-0.0131 -2.75852,0.0819 -3.55052,0.21112 -1.36306,0.22246 -1.52308,0.16544 -2.99484,-1.06716 -0.85517,-0.71619 -1.87352,-1.30217 -2.263,-1.30217 -1.32389,0 -3.6069,0.98554 -4.53606,1.95814 -0.91298,0.95567 -0.91703,0.97622 -0.2861,1.45102 0.44265,0.3331 1.12339,0.43752 2.20758,0.33863 2.04535,-0.18657 2.59968,-0.0176 3.02839,0.92337 0.20682,0.45392 1.05454,1.107 2.03901,1.57088 1.55566,0.733 1.95776,0.78292 5.23774,0.65023 3.28196,-0.13278 3.71788,-0.22834 5.71986,-1.25391 z m -83.752583,-0.08 c 0.396,-0.10612 0.72,-0.32016 0.72,-0.47563 0,-0.15547 -0.324,-0.28439 -0.72,-0.28648 -0.396,-0.002 -1.512,-0.22198 -2.48,-0.48864 -3.4905,-0.96157 -4.49897,-1.06698 -5.64132,-0.58967 -1.12374,0.46953 -1.34799,1.00479 -0.69468,1.65811 0.40519,0.40518 7.4414,0.55069 8.816,0.18231 z m 97.564043,-1.87774 c 1.04476,-0.68455 0.82625,-1.2103 -0.65848,-1.58437 -0.99379,-0.25038 -1.63666,-0.15629 -3.6557,0.53506 -1.34742,0.46137 -2.87435,0.93197 -3.39317,1.04578 -0.74717,0.16391 -0.84698,0.27315 -0.48,0.52537 0.7483,0.51432 7.23718,0.10074 8.18735,-0.52184 z M 30.067307,157.57187 c 0.34043,-0.18219 0.61896,-0.47019 0.61896,-0.64 0,-0.41767 -1.16878,-0.39078 -1.98426,0.0457 -0.53114,0.28425 -0.57447,0.40995 -0.21897,0.63509 0.57789,0.36599 0.83672,0.35933 1.58427,-0.0408 z m 68.39615,-1.08884 c 0.94126,-0.81321 1.662813,-2.15563 1.662813,-3.09361 0,-0.66319 0.0351,-0.67373 0.5852,-0.17589 0.32186,0.29128 0.78103,0.5296 1.02039,0.5296 0.83795,0 8.1636,-3.60482 9.11441,-4.48504 0.528,-0.4888 1.824,-1.32142 2.88,-1.85026 1.57825,-0.79039 2.01968,-1.19538 2.48,-2.27531 0.308,-0.72258 0.56,-1.71866 0.56,-2.21351 0,-1.26374 -0.92526,-4.26684 -1.52075,-4.93588 -1.15031,-1.29238 -5.67657,-0.17214 -9.37466,2.32021 -2.4889,1.67742 -3.55633,2.18902 -5.38599,2.58141 -1.870793,0.40121 -2.161743,0.76819 -3.346623,4.22121 -0.71204,2.07503 -0.85198,3.0377 -0.85198,5.86104 0,4.62137 0.31291,5.12669 2.17719,3.51603 z m -58.78126,0.44087 c 0.34862,-0.18657 1.22415,-0.44 1.94562,-0.56316 l 1.31177,-0.22394 -1.72666,-1.11573 c -1.59022,-1.02758 -1.92117,-1.11583 -4.18834,-1.11684 -2.15856,-9.6e-4 -2.54625,0.0897 -3.14847,0.73608 -0.82685,0.88752 -1.42985,0.76714 -1.42985,-0.28544 0,-0.60048 -0.16979,-0.77174 -0.76512,-0.77174 -1.06239,0 -1.62652,0.94549 -0.96114,1.61088 0.50727,0.50726 3.07081,1.28891 5.72626,1.74598 2.10435,0.36222 2.53305,0.36008 3.23593,-0.0161 z m 12.86862,-2.2991 c 1.65253,0.35736 1.65729,0.35606 2.69545,-0.73714 0.572,-0.60232 1.04,-1.39902 1.04,-1.77043 0,-1.16007 -1.22231,-2.46095 -3.12754,-3.32858 -1.00785,-0.45896 -2.38905,-1.42188 -3.06935,-2.13981 -1.20152,-1.26801 -1.2303,-1.35222 -1.00647,-2.94552 0.12672,-0.9021 0.25132,-2.43219 0.27688,-3.40019 l 0.0465,-1.76 -1.51553,-0.2928 c -1.25801,-0.24304 -1.70835,-0.18895 -2.65031,0.31833 -1.79151,0.96479 -5.17291,4.50374 -6.08553,6.36907 -0.45704,0.93417 -1.18146,2.17352 -1.60981,2.75411 -0.42835,0.5806 -0.76925,1.20765 -0.75757,1.39346 0.0478,0.75969 2.19121,3.26472 3.35492,3.92089 0.68577,0.38667 2.18668,0.93655 3.33535,1.22194 1.14867,0.28539 2.58101,0.7774 3.18299,1.09335 1.08117,0.56746 1.11362,0.56453 2.66454,-0.24011 1.44788,-0.75119 1.69885,-0.78672 3.2255,-0.45657 z m 23.06122,0.85216 c 0.34331,-0.89467 0.20758,-4.48865 -0.2608,-6.90568 -0.59184,-3.05407 -2.48598,-7.21844 -3.45872,-7.60415 -0.39943,-0.15839 -1.73059,-0.51885 -2.95813,-0.80104 -1.22754,-0.28218 -2.74276,-0.85114 -3.36716,-1.26434 -4.1471,-2.74443 -9.66586,-4.17804 -11.30385,-2.93642 -1.38187,1.04747 -1.95911,5.96759 -0.95378,8.12944 0.65728,1.41341 0.69024,1.43782 3.29748,2.4422 1.14444,0.44087 2.47033,1.16277 2.94641,1.60422 0.47609,0.44146 1.84373,1.17291 3.0392,1.62545 6.80157,2.57471 6.7204,2.55197 7.73885,2.16755 0.93106,-0.35143 0.98012,-0.32496 1.32295,0.71382 0.34592,1.04816 2.66081,3.31624 3.39755,3.32886 0.20117,0.003 0.45317,-0.22152 0.56,-0.49991 z m 59.173063,-0.346 c 3.03314,-0.92567 3.80886,-1.59442 2.90169,-2.50159 -0.71168,-0.71169 -1.58542,-0.48908 -1.46521,0.3733 0.14266,1.02342 -0.44639,1.17493 -1.51016,0.38845 -1.46744,-1.08492 -3.93754,-0.71998 -6.44071,0.95158 l -1.92368,1.28458 1.52962,0.12024 c 3.46757,0.2726 4.21292,0.20608 6.90845,-0.61656 z m 5.26319,0.45217 c -0.15029,-0.45781 -2.16202,-0.74962 -2.16202,-0.31361 0,0.50309 0.40122,0.71361 1.36,0.71361 0.60337,0 0.88691,-0.14141 0.80202,-0.4 z m -13.77678,-1.97975 c 2.81265,-1.0553 3.60665,-1.65623 4.84275,-3.66514 l 0.95899,-1.55856 -0.7213,-0.59827 c -0.39671,-0.32906 -1.13468,-1.36715 -1.63991,-2.30688 -1.00445,-1.86825 -3.56735,-4.39168 -5.77349,-5.68456 -1.14181,-0.66914 -1.64404,-0.78394 -2.67084,-0.61046 -1.95407,0.33014 -2.16745,0.79453 -1.52212,3.31276 0.30033,1.17197 0.53944,2.49086 0.53135,2.93086 -0.0202,1.09788 -1.80321,3.08848 -3.6826,4.1113 -0.85769,0.46679 -1.82607,1.30802 -2.15195,1.86941 -0.55226,0.95139 -0.55762,1.08817 -0.0789,2.01388 0.73286,1.41719 1.72426,1.78897 3.46834,1.30066 1.24577,-0.3488 1.57719,-0.32145 2.81329,0.23216 1.34101,0.60059 1.44239,0.60371 2.36117,0.0727 0.528,-0.30519 1.99736,-0.9441 3.26524,-1.41981 z m -97.843763,-0.63793 c 0.30381,-0.36606 0.24759,-0.52847 -0.28081,-0.81126 -1.24406,-0.6658 -0.74506,-1.02766 1.09933,-0.79721 2.93061,0.36615 2.11639,-0.54695 -1.28,-1.43543 -1.98851,-0.5202 -2.72,-0.43909 -2.72,0.30158 0,0.49778 -0.21333,0.64 -0.96,0.64 -1.68501,0 -0.97506,1.00261 1.40354,1.98212 1.6417,0.67605 2.2543,0.70295 2.73794,0.1202 z m 8.53321,-0.63732 c 0.2579,-0.67209 -0.40902,-1.71392 -1.43769,-2.24587 -0.88722,-0.45879 -0.91959,-0.44372 -1.74081,0.81059 l -0.83678,1.27808 0.7103,0.28582 c 1.14569,0.46101 3.10802,0.38465 3.30498,-0.12862 z m 97.733103,-0.82917 c 0.59072,-0.31614 0.58942,-0.35177 -0.0526,-1.44 -0.3621,-0.61371 -0.77533,-1.11583 -0.9183,-1.11583 -0.40347,0 -1.91684,1.91421 -1.91684,2.42455 0,0.54224 1.95393,0.63107 2.88779,0.13128 z m 8.68848,-0.79508 c 1.33214,-0.88157 1.34634,-1.59997 0.0266,-1.34769 -0.5946,0.11366 -0.84287,-0.003 -0.95981,-0.44987 -0.0867,-0.33175 -0.33079,-0.60319 -0.54232,-0.60319 -0.80322,0 -3.57858,0.96207 -4.18632,1.45118 -0.59506,0.47889 -0.53015,0.49868 1.04556,0.31868 1.69884,-0.19406 2.08307,0.0573 1.20352,0.78722 -0.26206,0.21749 -0.38775,0.53899 -0.27932,0.71445 0.3128,0.50611 2.33055,0.0302 3.69207,-0.87078 z M 31.597107,149.07969 c 1.17369,-0.58551 1.2008,-0.65148 0.43604,-1.06077 -0.62165,-0.3327 -3.58688,0.14779 -3.58688,0.58122 0,0.26755 1.22768,0.92657 1.79084,0.96133 0.19296,0.0119 0.80496,-0.20489 1.36,-0.48178 z m 107.074103,-0.82793 c 0.44829,-0.20425 0.81506,-0.48572 0.81506,-0.62549 0,-0.37615 -2.11244,-0.70454 -3.0379,-0.47226 -1.10573,0.27752 -1.00403,0.75252 0.2379,1.11111 0.572,0.16516 1.06923,0.31328 1.10494,0.32915 0.0357,0.0159 0.43172,-0.13825 0.88,-0.34251 z M 35.824307,146.95181 c 0.84019,-0.91988 1.22986,-1.84868 0.77561,-1.84868 -0.0915,0 -0.7395,0.36181 -1.44,0.80401 -1.19874,0.75674 -1.5497,1.37327 -1.06031,1.86266 0.39754,0.39754 0.7803,0.21601 1.7247,-0.81799 z m 98.474943,-0.30074 c 0.0897,-0.46201 -2.3203,-1.82728 -2.64766,-1.49993 -0.0815,0.0815 0.28216,0.61929 0.80811,1.19513 0.96892,1.06082 1.67025,1.17703 1.83955,0.3048 z m -32.30907,-7.01811 c 1.19414,-0.34986 1.49532,-0.62789 2.19648,-2.02764 0.44691,-0.89221 1.03447,-1.87419 1.30569,-2.18219 0.58646,-0.66602 0.51081,-0.66881 -2.16608,-0.08 -1.144,0.25164 -2.52521,0.46258 -3.06935,0.46876 -0.867793,0.01 -1.034883,0.16323 -1.359993,1.24837 -0.4582,1.52932 -0.46944,2.46037 -0.0394,3.26391 0.29679,0.55456 0.405,0.57189 1.04,0.1666 0.389813,-0.24879 1.331503,-0.63481 2.092653,-0.85781 z m -30.218143,-2.076 c 0.32542,-0.84803 0.21818,-2.33707 -0.2488,-3.45472 l -0.44304,-1.06034 -3.24843,-0.36938 c -4.45803,-0.50694 -4.45411,-0.50722 -3.62988,0.26067 0.37196,0.34654 1.08186,1.35154 1.57754,2.23334 0.825,1.46765 1.03683,1.63163 2.50404,1.93842 0.88154,0.18433 1.8188,0.47313 2.0828,0.64176 0.70286,0.44898 1.18567,0.3838 1.40577,-0.18975 z m 39.714233,-2.05383 c 1.02311,-0.352 2.18109,-0.64 2.57329,-0.64 0.83334,0 1.66798,-1.12652 1.80847,-2.4409 0.0922,-0.86212 0.0288,-0.91658 -1.02176,-0.87842 -0.616,0.0224 -2.14432,0.43054 -3.39626,0.90702 -1.90377,0.72457 -2.38716,1.06365 -2.95392,2.07207 -0.37271,0.66315 -0.58439,1.29899 -0.47041,1.41298 0.36976,0.36975 1.56108,0.22078 3.46059,-0.43275 z m -16.589783,-1.25486 c 0.10718,-0.45383 0.54405,-1.57662 0.97082,-2.4951 1.17868,-2.53672 1.27972,-3.69944 0.39324,-4.52533 -0.40422,-0.37659 -0.9238,-0.68471 -1.15461,-0.68471 -0.23082,0 -0.41967,-0.144 -0.41967,-0.32 0,-0.176 -0.6395,-0.32 -1.42111,-0.32 -2.49845,0 -1.88253,-0.87185 1.02111,-1.44542 0.572,-0.11299 1.04,-0.32621 1.04,-0.47383 0,-0.55946 -0.40119,-1.28075 -0.71237,-1.28075 -0.22979,0 -3.71816,1.9337 -4.28166,2.37344 -0.0187,0.0146 -0.12184,0.48817 -0.22916,1.05236 -0.1439,0.75649 -0.0882,0.98477 0.21212,0.86952 0.30534,-0.11717 0.40565,0.3868 0.40089,2.0142 -0.005,1.88293 0.15113,2.4769 1.18237,4.48341 1.15124,2.23996 1.2142,2.30133 1.99595,1.94514 0.44396,-0.20228 0.8949,-0.7391 1.00208,-1.19293 z m -11.31331,-0.9256 c 0.0928,-0.47275 -0.0119,-1.79554 -0.23267,-2.93954 -0.39941,-2.06975 -0.40334,-2.07527 -0.79755,-1.12 -0.2179,0.528 -0.55301,1.7364 -0.74471,2.68533 -0.30811,1.52522 -0.28308,1.7732 0.21585,2.13802 0.76574,0.55993 1.356,0.27076 1.55908,-0.76381 z m 17.002263,0.58838 c 0.6111,-0.23234 0.81958,-0.53895 0.81593,-1.2 -0.005,-0.87143 -0.48077,-1.97527 -0.72381,-1.67865 -0.706203,0.86185 -1.191293,1.86435 -1.191293,2.46193 0,0.83445 2.3e-4,0.83454 1.099173,0.41672 z m -39.259753,-0.27982 c 0.70346,-0.20348 0.69281,-0.23845 -0.48,-1.57639 -0.9827,-1.12106 -1.60415,-1.48799 -3.43942,-2.03082 -3.11011,-0.91988 -4.63048,-1.10014 -4.67684,-0.5545 -0.0831,0.97731 0.13659,1.75489 0.73183,2.59083 0.50754,0.71277 0.88631,0.88752 1.9668,0.90737 0.73602,0.0135 1.91421,0.21443 2.61821,0.44645 1.43031,0.47139 2.21959,0.52363 3.27942,0.21706 z m 44.233053,-0.19903 c 1.08447,-1.3067 1.07878,-5.60907 -0.007,-5.60907 -0.98857,0 -2.60892,4.29808 -2.11025,5.59759 0.23713,0.61795 1.60818,0.62538 2.11767,0.0115 z m -27.512473,-1.8739 c 0,-0.23366 0.37347,-1.34394 0.82994,-2.4673 0.85548,-2.10536 1.04191,-3.82302 0.6204,-5.71591 -0.2114,-0.94931 -0.17196,-1.06105 0.30932,-0.87637 0.43459,0.16677 0.50137,0.0921 0.31482,-0.35196 -0.13023,-0.31 -0.30114,-0.85675 -0.37981,-1.21501 -0.16799,-0.76499 -4.29681,-2.88372 -5.05364,-2.5933 -0.76336,0.29294 -0.59112,1.45179 0.23897,1.60783 3.54568,0.66649 4.14924,1.15075 1.91058,1.53292 -1.27268,0.21726 -3.11938,1.22911 -3.66568,2.00851 -0.48708,0.69492 -0.20609,1.86151 1.0351,4.2975 0.704,1.38168 1.28,2.6281 1.28,2.76983 0,0.14173 0.23832,0.52103 0.5296,0.84289 0.61188,0.67612 2.0304,0.78816 2.0304,0.16037 z m -11.89158,-1.4622 c 0.17361,-1.22823 -0.57452,-3.39029 -1.60623,-4.64193 -0.52452,-0.63634 -1.07777,-1.08029 -1.22944,-0.98655 -0.51714,0.3196 -0.70812,2.95667 -0.30502,4.21152 0.54012,1.68138 1.23254,2.39366 2.21558,2.27914 0.58351,-0.068 0.84765,-0.31416 0.92511,-0.86218 z m 4.53158,0.35823 c 0,-0.55826 -0.6911,-1.73897 -1.50634,-2.5735 -0.33983,-0.34787 -0.47047,-0.26993 -0.74125,0.44227 -0.41916,1.10248 -0.12636,2.02476 0.75574,2.38047 1.08084,0.43585 1.49185,0.36719 1.49185,-0.24924 z m 42.292653,-0.37216 c 2.46665,-0.87288 2.70058,-0.90336 3.23315,-0.42139 0.52784,0.47769 0.61567,0.47803 1.08949,0.004 0.47381,-0.47381 0.46229,-0.6053 -0.14289,-1.631 l -0.65824,-1.11564 0.91901,-0.38067 c 1.25721,-0.52075 1.58196,-1.74621 1.49737,-5.65039 -0.0853,-3.93462 0.16768,-4.4005 3.47666,-6.40384 2.74768,-1.66352 3.0413,-2.0726 2.18624,-3.04593 -0.35482,-0.40391 -1.18305,-1.56777 -1.84051,-2.58635 -1.81603,-2.81357 -3.13129,-3.1503 -4.3699,-1.11878 -0.67699,1.11037 -0.83003,2.65965 -0.33935,3.4353 0.22572,0.3568 0.0382,0.55245 -0.80856,0.84355 -1.52318,0.52364 -4.70334,2.7596 -4.28908,3.01563 0.18692,0.11552 -0.74289,1.03703 -2.07892,2.06035 -2.24834,1.72209 -5.49481,5.10706 -7.09283,7.39543 -0.3762,0.53873 -1.12551,1.85412 -1.66513,2.9231 -0.93666,1.85552 -0.95524,1.96699 -0.40994,2.46048 0.78831,0.71341 0.90188,0.6662 1.30015,-0.54057 0.19195,-0.58161 0.99511,-1.69159 1.78481,-2.46663 0.7897,-0.77503 1.43582,-1.58982 1.43582,-1.81065 0,-0.45816 3.20121,-3.62441 3.66494,-3.62491 0.16772,-1.8e-4 -0.22828,0.54574 -0.88,1.21316 -1.08904,1.11529 -1.59869,2.62652 -0.88577,2.62652 1.31431,0 3.54083,-1.64484 3.54083,-2.61578 0,-0.32132 0.15961,-0.58422 0.35469,-0.58422 0.53939,0 0.0317,1.63729 -0.77841,2.51045 -0.38296,0.41275 -1.34428,1.13275 -2.13628,1.6 l -1.44,0.84955 1.83811,0.0959 c 2.99172,0.15611 4.85447,-1.09791 5.62618,-3.7876 l 0.31799,-1.10831 0.0289,1.21028 c 0.0671,2.81429 -1.4585,4.20979 -5.57114,5.09599 -1.83226,0.39482 -1.92458,0.46125 -2.02027,1.45373 -0.098,1.01636 -0.0712,1.04 1.1768,1.04 0.7024,0 2.47365,-0.42343 3.93612,-0.94096 z m 13.069,-2.47683 c 0.79109,-0.35038 2.62836,-1.66257 4.08281,-2.91597 1.89358,-1.63184 2.98392,-2.33682 3.84,-2.48286 2.86117,-0.48808 3.51167,-0.77527 3.98917,-1.76118 l 0.47181,-0.97418 0.53466,0.81599 c 0.3694,0.56379 0.82113,0.81599 1.46154,0.81599 h 0.92688 l -0.52121,-1.32687 c -0.4682,-1.19191 -0.78375,-1.45285 -3.10219,-2.56531 -1.87903,-0.90163 -3.1791,-1.29429 -4.78028,-1.44381 -2.57848,-0.24078 -3.06159,0.11759 -3.06974,2.27715 -0.006,1.51632 -0.24301,1.9808 -1.09442,2.14222 -0.34772,0.0659 -1.08176,0.90883 -1.6738,1.92203 -0.57996,0.99253 -1.74126,2.38625 -2.58068,3.09715 -0.83941,0.7109 -1.84642,1.86462 -2.23781,2.56382 l -0.71162,1.27127 1.51327,-0.3992 c 0.83229,-0.21955 2.16052,-0.68586 2.95161,-1.03624 z m -65.147823,0.66355 c 0.54509,-0.20916 0.66685,-1.29677 0.22349,-1.99634 -0.15852,-0.25012 -1.26289,-0.542 -2.6351,-0.69643 -1.29922,-0.14622 -2.72222,-0.40519 -3.16222,-0.57547 -1.58757,-0.61442 -2.88799,-2.6415 -2.87297,-4.47835 0.006,-0.78412 0.0586,-0.74737 0.59779,0.42083 1.09582,2.37434 2.73973,3.36348 5.57602,3.3551 2.62003,-0.008 2.89049,-0.45242 0.82951,-1.36388 -2.02386,-0.89505 -3.49592,-2.45937 -3.47782,-3.69577 l 0.0125,-0.85545 0.4298,0.98714 c 0.52654,1.20932 1.80826,2.2568 3.11181,2.54311 2.04448,0.44904 1.83644,-0.92044 -0.47159,-3.10426 -1.28153,-1.21257 -0.49622,-0.84107 1.34028,0.63402 0.76744,0.61642 1.64304,1.52807 1.94578,2.02588 0.30273,0.49781 1.14719,1.33741 1.87656,1.86576 0.73234,0.5305 1.65976,1.61712 2.07124,2.42679 l 0.74511,1.46614 0.76493,-0.6194 0.76493,-0.6194 -1.38062,-2.32392 c -1.85693,-3.12567 -6.37309,-7.71028 -9.92208,-10.07245 -1.57879,-1.05083 -2.72661,-1.99954 -2.55072,-2.10825 0.41142,-0.25427 0.0146,-0.55938 -2.62123,-2.01528 -1.1609,-0.64123 -2.4072,-1.16588 -2.76954,-1.16588 -0.58219,0 -0.63913,-0.14659 -0.48971,-1.26067 0.22225,-1.65695 -0.0325,-2.54953 -1.03294,-3.61933 -0.95245,-1.01848 -1.71368,-1.11022 -2.62855,-0.31676 -0.94516,0.81974 -4.00795,6.12816 -3.81933,6.61968 0.0882,0.22992 1.35976,0.9928 2.82563,1.69528 1.46586,0.70248 2.90289,1.54827 3.1934,1.87952 0.78372,0.89365 1.22576,2.86368 1.24808,5.56228 0.0271,3.27598 0.4887,4.49582 1.9764,5.22286 l 1.19268,0.58286 -0.66373,0.89774 c -0.36505,0.49376 -0.6121,1.16582 -0.549,1.49347 0.16362,0.84965 1.20083,0.94337 1.75078,0.15821 0.35883,-0.5123 0.58869,-0.58922 1.01054,-0.33816 0.79111,0.47082 4.85273,1.51396 6.03988,1.55121 0.55761,0.0175 1.24161,-0.0556 1.52,-0.16243 z m -15.55394,-2.56882 c -0.58294,-0.81569 -1.58703,-1.81738 -2.23133,-2.22599 -1.58377,-1.00442 -2.63076,-2.09189 -3.49569,-3.63082 -0.48627,-0.86521 -1.06676,-1.4003 -1.77137,-1.63284 -0.93435,-0.30836 -1.07101,-0.50872 -1.25947,-1.84659 -0.11627,-0.82538 -0.42296,-1.83668 -0.68153,-2.24731 -0.42864,-0.68074 -0.61618,-0.72696 -2.12531,-0.52378 -3.66998,0.49408 -7.98837,2.72939 -8.73773,4.52286 -0.62184,1.48828 -0.5534,2.02753 0.25735,2.02753 0.83725,0 1.86474,-0.86409 1.86639,-1.5696 7e-4,-0.2953 0.2606,-0.085 0.61673,0.49906 0.61918,1.01545 0.89528,1.12782 3.86207,1.57176 1.79853,0.26912 3.16999,0.96546 5.52463,2.80504 2.32699,1.81798 4.11231,2.68384 6.68521,3.24225 1.11659,0.24233 2.14711,0.45206 2.29005,0.46605 0.14293,0.014 -0.21707,-0.64194 -0.8,-1.45762 z m 81.074903,-6.32495 c 0.68466,-0.94394 0.90402,-1.60666 0.90031,-2.72 -0.003,-0.8096 -0.1379,-1.68227 -0.30046,-1.93927 -0.25703,-0.40635 -0.37113,-0.40134 -0.8751,0.0384 -0.31875,0.27814 -1.58754,1.19834 -2.81954,2.04489 -1.232,0.84656 -2.3458,1.69327 -2.4751,1.88158 -0.287,0.41796 -0.30976,3.1074 -0.0401,4.73874 l 0.19776,1.19636 2.25351,-1.99636 c 1.23943,-1.098 2.66085,-2.55797 3.15872,-3.24437 z m -26.493283,1.74593 c 0.101813,-0.62586 0.0925,-3.0728 -0.0207,-5.43765 l -0.20578,-4.29974 -1.38121,-1.97585 c -1.62865,-2.32979 -1.82272,-2.50173 -3.39574,-3.00842 -1.72673,-0.5562 -4.45271,-2.89815 -5.90521,-5.07328 -1.34635,-2.016164 -2.01817,-4.327701 -2.79732,-9.624622 -0.51445,-3.49744 -1.59195,-5.388775 -3.41738,-5.998484 -1.27581,-0.426128 -1.48054,-1.160409 -0.78661,-2.821209 0.43855,-1.04961 0.43768,-1.185901 -0.009,-1.357187 -0.28149,-0.108016 -0.78047,0.09387 -1.15318,0.466582 -0.82618,0.826179 -0.84905,2.31857 -0.0852,5.558666 l 0.57179,2.425398 -1.04592,2.523936 c -1.7456,4.212358 -3.96165,6.719836 -7.20794,8.15582 -1.45979,0.64574 -1.95881,1.2352 -3.80853,4.49877 -0.532,0.93865 -0.59729,1.66727 -0.53419,5.96144 0.0741,5.0414 0.26372,6.29503 1.15899,7.66138 0.93344,1.42461 1.24762,0.40237 0.63928,-2.08002 -0.29841,-1.21769 -0.49204,-2.77636 -0.4303,-3.46372 l 0.11226,-1.24973 0.33023,1.11951 c 0.42584,1.4436 1.07212,1.53886 2.87852,0.42432 2.62546,-1.6199 3.59763,-2.66014 5.12496,-5.48377 0.82707,-1.52903 1.79425,-3.19658 2.1493,-3.70565 0.35504,-0.50907 0.97393,-1.73307 1.3753,-2.72 l 0.72977,-1.794414 0.68195,1.639824 c 0.40344,0.97011 1.00922,1.81498 1.48328,2.06869 0.94424,0.50534 1.53284,1.56359 1.853,3.33149 0.35976,1.98661 1.68206,4.4992 3.94516,7.49645 2.9424,3.89696 3.88141,4.82355 4.88818,4.82355 1.08011,0 2.54038,-1.12786 2.54038,-1.96211 0,-0.34961 0.144,-0.54666 0.32,-0.43789 0.38584,0.23846 0.39551,2.6644 0.0184,4.61811 -0.15055,0.77996 -0.19414,1.62551 -0.0969,1.879 0.26445,0.68915 1.25069,-0.74973 1.47996,-2.15919 z m -53.37697,-4.67331 c -0.0904,-0.36046 -0.76011,-0.99025 -1.48834,-1.39954 -0.72822,-0.40928 -2.26679,-1.37634 -3.41905,-2.14901 -1.15226,-0.77267 -2.1571,-1.34277 -2.23299,-1.26689 -0.0759,0.0759 -0.21457,0.70908 -0.30819,1.40709 -0.34369,2.56242 0.69466,4.06733 5.34403,7.74528 l 2.08,1.64541 0.0944,-2.66347 c 0.0519,-1.46492 0.0205,-2.9584 -0.0699,-3.31887 z m 37.73546,3.9912 c 1.27455,-0.86221 2.73749,-0.66248 4.86648,0.66441 3.78015,2.35598 3.57361,-0.086 -0.55613,-6.57539 -2.15456,-3.38562 -3.02572,-5.46998 -3.36959,-8.06222 -0.2549,-1.92152 -0.70844,-2.21881 -2.26101,-1.48206 -1.27484,0.60495 -1.56132,1.0517 -1.87022,2.91654 -0.12364,0.74641 -0.50036,1.92745 -0.83716,2.62455 -0.79918,1.65411 -0.77286,2.38834 0.10763,3.00255 0.55168,0.38483 0.59918,0.50617 0.20316,0.51903 -0.28427,0.009 -0.90318,-0.28711 -1.37537,-0.65854 l -0.85853,-0.67531 -1.50463,0.77206 c -1.27436,0.6539 -1.52031,0.93324 -1.60713,1.82525 -0.11828,1.21517 0.55163,2.13164 1.72165,2.3553 0.96342,0.18417 1.02776,-0.39934 0.13329,-1.20882 -0.47257,-0.42768 -0.55121,-0.67888 -0.291,-0.9296 0.25743,-0.24806 0.7781,0.12345 1.87297,1.33644 0.83404,0.924 1.74816,1.68 2.0314,1.68 0.3701,0 0.57698,0.42763 0.73536,1.52 0.28964,1.99768 0.39405,2.1299 1.20933,1.5314 0.37923,-0.27839 1.1215,-0.79841 1.6495,-1.15559 z m 21.037293,-2.87162 c 0.22149,-0.3607 1.84271,-1.61322 3.60271,-2.78337 3.97373,-2.64198 5.79255,-4.49186 7.14633,-7.26837 0.57917,-1.18786 0.9956,-2.21718 0.9254,-2.28739 -0.35658,-0.35658 -3.20596,-0.39349 -5.12961,-0.0664 -1.6582,0.28192 -2.2584,0.52908 -2.51532,1.03582 -0.18559,0.36606 -1.55268,1.89958 -3.03798,3.40782 l -2.70053,2.74226 0.22177,2.93774 c 0.23095,3.05937 0.63198,3.67469 1.48723,2.28193 z m 35.76271,-0.77951 c 0,-0.0854 -0.44609,-1.00634 -0.99132,-2.04648 -1.39728,-2.66563 -2.25886,-3.07188 -6.00077,-2.82945 -1.6845,0.10913 -2.9943,0.0627 -3.10099,-0.10991 -0.27531,-0.44547 -1.61702,-0.36094 -2.02232,0.12741 -0.26121,0.31475 -0.24239,0.57856 0.072,1.00848 0.29554,0.40418 0.49537,0.46955 0.65346,0.21375 0.42359,-0.68539 1.77987,-0.42073 2.16397,0.42226 0.37928,0.83243 1.41524,1.2864 3.76625,1.65042 0.78114,0.12095 1.91723,0.55717 2.52465,0.96937 0.95482,0.64796 2.93509,1.04882 2.93509,0.59415 z M 26.366267,115.25887 c 0.352,-0.17364 0.92806,-0.57706 1.28013,-0.89647 0.35207,-0.31942 1.3372,-0.73698 2.18917,-0.92791 2.49643,-0.55946 3.65296,-1.1728 4.19767,-2.22615 0.52754,-1.02016 1.36264,-1.2676 2.02903,-0.60121 0.50225,0.50225 1.12805,-0.0841 0.97128,-0.91001 -0.13663,-0.71981 -1.68667,-0.98224 -2.38388,-0.40361 -0.30206,0.25069 -1.61957,0.40637 -3.58065,0.42312 -3.9258,0.0335 -4.8145,0.55085 -5.85672,3.40923 -0.38442,1.05431 -0.82204,1.993 -0.97249,2.08598 -0.15044,0.093 -0.27354,0.30731 -0.27354,0.47627 0,0.33089 1.34779,0.0898 2.4,-0.42924 z m 37.95209,-1.59574 c 0.0176,-0.22 0.0262,-1.696 0.0189,-3.28 l -0.0132,-2.88 -2.948,-2.37956 c -1.6214,-1.30875 -3.17793,-2.78512 -3.45894,-3.28082 -0.65795,-1.16059 -1.07978,-1.27764 -4.71034,-1.30698 -3.97322,-0.0321 -4.13068,0.13619 -2.6802,2.8645 1.44794,2.72354 3.72704,4.76044 8.04092,7.18645 1.87073,1.05205 3.73183,2.26462 4.13579,2.69461 0.79253,0.84361 1.56332,1.02584 1.61499,0.3818 z m 63.007913,-3.71451 c 0,-0.15098 -0.504,-1.24145 -1.12,-2.42325 -0.616,-1.18181 -1.12,-2.57028 -1.12,-3.08549 0,-1.14479 -0.60006,-1.21906 -1.75127,-0.21675 l -0.82696,0.72 1.17183,1.76 c 0.64451,0.968 1.53955,2.156 1.98899,2.64 0.79059,0.8514 1.65741,1.16806 1.65741,0.60549 z m 3.80427,-1.30637 c 0.3092,-0.16548 1.12961,-0.84948 1.82311,-1.52 0.69351,-0.67052 2.1534,-1.75607 3.24419,-2.41234 1.65358,-0.99487 2.11835,-1.47876 2.79585,-2.91088 0.44692,-0.94471 0.81258,-1.813884 0.81258,-1.931484 0,-0.36653 -2.04694,-1.481966 -2.72187,-1.483223 -0.45528,-9.6e-4 -0.8451,0.441783 -1.34093,1.522593 -0.87169,1.900114 -2.84644,4.033254 -5.49259,5.933154 l -2.03538,1.46138 0.82084,0.82084 c 0.89281,0.89281 1.23758,0.97841 2.0942,0.51996 z m -20.33366,-6.22706 c 0.50572,-0.12197 1.08852,-0.072 1.31074,0.11246 0.22063,0.18311 2.32877,0.36873 4.6993,0.41378 3.69621,0.0702 4.42361,6.4e-4 5.18645,-0.49695 1.25172,-0.8163 1.35325,-1.34085 0.58944,-3.045374 -0.3687,-0.82279 -0.71226,-1.770374 -0.76346,-2.105743 -0.15735,-1.030784 -3.12008,-1.847027 -6.27742,-1.729453 l -2.66433,0.09922 -1.60401,1.76 c -3.2486,3.56451 -3.777,4.11702 -4.33626,4.53411 -0.31408,0.23424 -1.05101,1.11407 -1.63762,1.95518 -0.93227,1.33675 -1.03924,1.691 -0.84956,2.81367 l 0.21699,1.28438 2.60957,-2.68784 c 1.57044,-1.61754 2.97216,-2.77528 3.52017,-2.90744 z m -69.171253,1.88444 c 1.00566,-1.58208 1.83571,-2.95345 1.84456,-3.0475 0.0265,-0.28209 -1.80364,-1.269004 -2.35329,-1.269004 -0.3612,0 -0.51285,0.304344 -0.51822,1.040004 -0.004,0.572 -0.37771,1.904 -0.83007,2.96 -1.1935,2.78614 -1.308,3.45039 -0.57028,3.30831 0.34048,-0.0656 1.3877,-1.35634 2.4273,-2.99181 z m 98.105693,1.90839 c 1.0389,-0.43389 1.72954,-1.54037 1.43867,-2.30489 -0.23158,-0.60866 -0.9796,-0.47773 -1.36295,0.23856 -0.18796,0.35121 -1.09303,1.15706 -2.01126,1.79076 l -1.66951,1.1522 1.28,-0.22009 c 0.704,-0.12105 1.75027,-0.4165 2.32505,-0.65654 z M 36.569467,105.27439 c 0.28424,-0.43381 0.51619,-0.90181 0.51543,-1.04 -6.4e-4,-0.13819 -1.04475,-0.79409 -2.32,-1.45755 -1.27524,-0.66346 -2.54048,-1.38346 -2.81165,-1.6 -0.79204,-0.6325 -2.23412,-2.661509 -3.17986,-4.47406 -0.80176,-1.536614 -0.96597,-1.675206 -1.92826,-1.627414 -1.12782,0.05602 -2.66513,1.011197 -2.80312,1.741674 -0.0464,0.245347 0.34931,0.950086 0.87925,1.566086 0.52993,0.616 0.96385,1.29267 0.96426,1.50372 0.001,0.530344 1.69836,1.754544 4.09166,2.951124 1.10601,0.55296 2.33001,1.37668 2.72,1.83049 1.33044,1.5481 3.07598,1.82125 3.87229,0.60593 z m 62.9168,-1.43237 c 0,-0.69362 0.144,-1.35012 0.32,-1.45889 0.176,-0.10877 0.320003,-0.76047 0.320003,-1.44822 0,-1.001024 -0.222103,-1.472554 -1.113463,-2.363914 -0.76748,-0.767483 -1.17996,-1.529284 -1.32745,-2.451636 -0.16737,-1.046644 -0.68735,-1.869517 -2.38686,-3.7772 -2.85379,-3.203348 -3.91334,-5.009728 -5.69719,-9.7129 -1.46953,-3.874473 -1.48951,-3.905545 -2.69337,-4.190256 -0.99696,-0.235776 -1.33229,-0.180832 -1.88372,0.308644 -0.83621,0.742249 -1.73454,2.751139 -1.98345,4.435478 l -0.18915,1.28 1.67348,0.8 c 1.01799,0.486643 1.88693,1.176029 2.21841,1.76 0.76816,1.353302 1.8629,6.631216 1.64892,7.949782 -0.27764,1.710912 0.37927,3.11769 2.3764,5.089052 1.79262,1.76949 6.9941,4.96896 8.15744,5.0177 0.44258,0.0186 0.56,-0.24098 0.56,-1.23764 z m -72.36946,-0.1844 c -0.8192,-0.42664 -1.8476,-1.23333 -2.28532,-1.79264 -0.8528,-1.08968 -1.82522,-1.10729 -1.82522,-0.0331 0,1.4519 1.86999,2.57388 4.32,2.59196 l 1.28,0.009 -1.48946,-0.77572 z m 104.736563,-1.2025 c 0.78303,-1.46311 -0.97801,-2.690864 -2.57443,-1.79482 -0.83528,0.46884 -1.54432,2.41759 -1.20312,3.30674 0.14513,0.37821 0.45601,0.33729 1.82209,-0.23987 0.90591,-0.38273 1.78586,-0.95515 1.95546,-1.27205 z m -68.847103,-0.97566 c 0,-1.588354 -1.51547,-4.038692 -3.09003,-4.996244 -0.5054,-0.307351 -1.66234,-1.416976 -2.57098,-2.465831 -0.91232,-1.053104 -2.39474,-2.311219 -3.31064,-2.809718 -1.50915,-0.821383 -1.87883,-0.889571 -4.10346,-0.756925 -1.52656,0.09102 -3.17842,0.43519 -4.39781,0.916288 l -1.95292,0.770506 -0.87265,2.456041 c -1.02272,2.878362 -0.87896,3.440992 1.07941,4.224569 1.15437,0.4619 1.60147,0.46623 4.56933,0.0444 4.29233,-0.610164 8.65302,-0.620868 9.78565,-0.024 0.47526,0.25044 1.65119,1.258444 2.61317,2.240004 0.96199,0.98156 1.86199,1.78465 2,1.78465 0.13802,0 0.25093,-0.62265 0.25093,-1.38367 z m -25.50259,-2.076154 c -0.23662,-1.587268 -1.09353,-2.42818 -2.47438,-2.42818 -1.32398,0 -2.42303,0.881978 -2.42303,1.94446 0,0.79939 0.32141,0.99799 2.88,1.779604 1.80152,0.55034 2.24971,0.26245 2.01741,-1.295884 z m 96.495113,0.856934 c 0.34593,-0.553924 0.34884,-0.730864 0.0154,-0.936944 -0.43439,-0.26847 -1.21956,0.50535 -1.23774,1.219834 -0.0163,0.64069 0.75739,0.46164 1.22235,-0.28289 z m -6.77831,-2.780544 c 0.26041,-1.035668 -0.16711,-1.311165 -1.64806,-1.06202 -0.97816,0.16456 -1.34042,0.403588 -1.56062,1.029732 -0.23909,0.679846 -0.1337,0.97174 0.63385,1.755568 l 0.92062,0.940154 0.73364,-0.960004 c 0.40351,-0.528 0.81777,-1.294544 0.92057,-1.70343 z m -56.982223,1.29082 c 0.68641,-0.490936 2.07231,-1.291713 3.07977,-1.779505 4.16487,-2.016525 5.90698,-6.329959 4.6945,-11.623472 -0.38269,-1.670752 -0.21468,-2.340624 1.82073,-7.259261 0.88377,-2.135677 0.89184,-2.206848 0.29947,-2.64 -0.79685,-0.582675 -2.09128,-0.566166 -2.95336,0.03766 -0.40418,0.283094 -0.9084,1.242784 -1.21895,2.32 -0.67367,2.336832 -1.99012,4.646835 -4.31672,7.574611 -1.01227,1.27384 -1.94751,2.653248 -2.07831,3.06535 -0.13079,0.412103 -0.7241,1.764004 -1.31846,3.004224 -1.16276,2.426266 -1.36869,4.169863 -0.61083,5.17184 0.2584,0.341639 0.4744,1.161162 0.48,1.821162 0.0124,1.463701 0.42242,1.523081 2.12216,0.307391 z m 61.330673,0.0557 c 0.95909,-0.19023 1.61932,-1.084954 1.33922,-1.814877 -0.23944,-0.623975 -1.52687,-1.276509 -2.24546,-1.138119 -0.64433,0.124087 -2.26975,2.31224 -2.26975,3.055546 0,0.46666 0.3656,0.45486 3.17599,-0.10255 z M 31.954337,97.597504 c 0.31163,-0.375488 0.21676,-0.68808 -0.49005,-1.614762 -1.16726,-1.530355 -1.76372,-1.03071 -0.9428,0.78977 0.63427,1.406569 0.84804,1.529651 1.43285,0.824992 z m -9.15341,-1.61714 c -0.21519,-0.560803 -1.32263,-0.900019 -2.40211,-0.735788 -0.7353,0.111868 -0.73055,0.126844 0.20745,0.653708 1.24394,0.698698 2.44857,0.743751 2.19466,0.08208 z m 17.59929,-0.375993 c 0.96428,-1.207024 1.12315,-1.754458 0.74908,-2.581245 -0.24861,-0.549498 -0.61671,-0.731366 -1.55439,-0.768 -0.67575,-0.0264 -1.40864,-0.0624 -1.62864,-0.08 -0.63545,-0.05084 -0.31739,1.378355 0.6462,2.903658 0.48059,0.760758 0.92508,1.383456 0.98775,1.383769 0.0627,3.17e-4 0.42267,-0.385869 0.8,-0.858182 z m 95.958503,-0.326813 c 0.34819,-0.315107 0.8338,-0.961088 1.07914,-1.435517 0.63077,-1.219789 0.0152,-1.449779 -1.18269,-0.441849 -0.5379,0.452614 -1.15785,0.822934 -1.37767,0.822934 -0.56081,0 -1.84889,1.435363 -1.55416,1.731875 0.38535,0.387677 2.34064,-0.04871 3.03538,-0.677443 z m -99.600383,0.116406 c -0.004,-0.203961 -0.50976,-1.054838 -1.12311,-1.890838 -1.20802,-1.646557 -2.02309,-1.900656 -3.27775,-1.021856 -1.10414,0.773366 -0.77935,2.709789 0.51408,3.065046 1.10696,0.304039 3.89421,0.194788 3.88678,-0.152352 z m 26.72404,-0.518576 c 0.11622,-0.366172 -0.15679,-1.466211 -0.65521,-2.64 -1.65844,-3.905699 -2.11622,-5.536931 -2.58062,-9.195734 -0.25805,-2.033091 -0.69462,-4.39367 -0.97015,-5.245731 -0.68611,-2.121763 -2.0961,-3.661415 -3.57457,-3.903277 -0.64656,-0.105773 -1.89556,-0.539504 -2.77556,-0.963846 -0.88,-0.424346 -2.67263,-1.012359 -3.98363,-1.306698 -2.8439,-0.638493 -3.68023,-1.34703 -3.98443,-3.375562 -0.32304,-2.154147 -1.73533,-4.173907 -3.49788,-5.002403 -1.99693,-0.938669 -4.21427,-1.402624 -6.13406,-1.283491 -1.1311,0.07019 -1.83186,-0.06406 -2.3912,-0.458115 -0.43516,-0.306573 -1.15516,-0.555997 -1.6,-0.554279 -1.25714,0.0049 -4.1688,1.479789 -4.1688,2.111748 0,0.491744 -0.065,0.485436 -0.67336,-0.06528 -0.52852,-0.478467 -1.2685,-0.632138 -3.44,-0.714384 l -2.76664,-0.104781 1.65133,1.464515 c 1.94586,1.725734 2.83597,3.418902 3.28597,6.25055 0.43476,2.735789 1.14739,3.446599 3.87721,3.867277 1.30013,0.200355 3.14223,0.849837 4.97131,1.752765 1.59819,0.788957 3.35045,1.434464 3.8939,1.434464 1.23625,0 2.03741,1.189411 2.80208,4.16 0.8171,3.174272 1.58972,3.696598 2.72171,1.84 0.71072,-1.16567 0.88119,-4.671037 0.32197,-6.620918 -0.17299,-0.603181 -0.25376,-1.15746 -0.17949,-1.231732 0.0743,-0.07427 0.45017,0.90248 0.83534,2.170557 0.80864,2.662291 0.70993,4.710487 -0.33061,6.859962 -0.35789,0.739305 -0.65072,1.432384 -0.65072,1.540173 0,0.367907 3.35464,1.432083 7.84,2.487036 l 4.48,1.053696 2.72,2.779482 c 3.52052,3.597507 4.54328,4.194726 4.95611,2.894006 z m 63.906863,0.107399 c 0.12264,-0.07501 0.65777,-0.780621 1.18917,-1.568023 l 0.96621,-1.431638 h -1.96398 c -1.30138,0 -2.14388,-0.162813 -2.49723,-0.482592 -0.47706,-0.431734 -0.58478,-0.423302 -1.0221,0.08 -0.53465,0.615299 -1.00939,3.381491 -0.64323,3.747878 0.21987,0.22 3.51534,-0.06682 3.97116,-0.345625 z m -5.82297,-1.220775 c 0,-0.605612 -0.12835,-1.180438 -0.28522,-1.277392 -0.43961,-0.271689 -3.28868,1.096804 -3.14994,1.513008 0.13996,0.419885 1.2647,0.786826 2.55516,0.8336 0.79569,0.02883 0.88,-0.0736 0.88,-1.069216 z m -21.03184,-0.801459 c 0.29565,-1.130547 -2.099903,-5.137427 -3.071453,-5.137427 -0.70331,0 0.0943,2.638445 1.25945,4.166317 1.343483,1.761699 1.573083,1.884749 1.812003,0.97111 z M 30.846267,91.983126 c 0,-0.417379 -0.9285,-1.034269 -3.92135,-2.605302 -1.02733,-0.539277 -1.21099,-0.150823 -0.50602,1.07023 1.01147,1.75192 4.42737,2.936291 4.42737,1.535072 z m 11.01636,-1.41151 c 0.25616,-0.30866 0.26856,-0.517124 0.0392,-0.658887 -0.18454,-0.114054 -0.33554,-0.598835 -0.33554,-1.077286 0,-1.69536 -1.85343,-3.121255 -2.35572,-1.812317 -0.13771,0.35887 -0.71161,0.48 -2.27423,0.48 -1.14953,0 -2.08911,0.108 -2.08798,0.24 10e-4,0.132 0.58834,0.924 1.3049,1.76 1.29821,1.514608 1.30998,1.52 3.31875,1.52 1.34501,0 2.14063,-0.150266 2.39064,-0.45151 z m 88.047213,-0.143232 c 0.49587,-0.40153 0.86255,-1.22256 1.12868,-2.527261 0.21681,-1.062883 0.91545,-3.118048 1.55253,-4.567034 0.63708,-1.448989 1.08784,-2.705005 1.0017,-2.791155 -0.4141,-0.414093 -2.5665,0.39369 -4.08076,1.531485 -0.92867,0.697789 -1.98885,1.268707 -2.35595,1.268707 -0.36709,0 -0.89323,0.18 -1.16919,0.4 -0.5678,0.452669 -1.93429,4.72 -1.51143,4.72 0.15093,0 0.51421,0.468 0.80728,1.04 0.29308,0.572 0.69278,1.145795 0.88822,1.275101 0.70536,0.466665 2.99517,0.252413 3.73892,-0.349843 z M 46.126267,89.7263 c 1.70959,-0.474777 1.50864,-1.128038 -0.52925,-1.720467 -0.95108,-0.276489 -1.79148,-0.502707 -1.86754,-0.502707 -0.0761,0 -0.16086,0.576 -0.18844,1.28 -0.0442,1.12824 0.0349,1.279789 0.66754,1.278214 0.39473,-9.6e-4 1.25769,-0.15175 1.91769,-0.33504 z m 57.413953,-7.672688 c 0.11239,-2.140556 0.0367,-5.021072 -0.18033,-6.861196 -0.38424,-3.258048 -1.57177,-7.284583 -2.3896,-8.10242 -0.40159,-0.401587 -0.55182,-0.259945 -1.162413,1.095972 -0.62056,1.378035 -0.67919,1.906854 -0.50973,4.597158 0.27708,4.398938 0.0885,4.832218 -2.86117,6.574614 -1.04847,0.619341 -0.35034,2.43577 1.99263,5.1845 1.16307,1.364486 2.373663,3.061932 2.690213,3.772099 0.31655,0.710166 0.68801,1.403677 0.82546,1.541133 0.46716,0.467161 1.40048,-4.098282 1.59494,-7.80186 z m 31.17665,4.787725 c 0.53467,-0.38072 0.93148,-0.958329 0.9343,-1.36 0.003,-0.384016 0.14449,-0.914211 0.3151,-1.178211 0.2651,-0.410208 0.31091,-0.398576 0.3151,0.08 0.007,0.801702 1.04267,0.699094 1.87384,-0.185651 0.38528,-0.410106 1.04414,-1.794755 1.46414,-3.076999 l 0.76363,-2.331353 -1.78367,0.147917 c -1.68266,0.139539 -1.86737,0.243344 -3.26154,1.832976 -0.81282,0.92678 -1.5064,2.029824 -1.54127,2.451203 -0.0349,0.421379 -0.28095,1.286777 -0.54682,1.923107 -0.96472,2.30889 -0.36548,3.001987 1.46719,1.697011 z M 67.985807,85.374112 c 0.90999,-1.321261 1.24592,-2.135693 1.24592,-3.020608 0,-0.666375 -0.10873,-1.320317 -0.24162,-1.453207 -0.39068,-0.390688 -1.33419,0.856963 -2.26567,2.996035 -0.68942,1.5832 -0.79675,2.12625 -0.5218,2.64 0.19038,0.355738 0.38915,0.646794 0.4417,0.646794 0.0525,0 0.65622,-0.814058 1.34147,-1.809014 z m 26.3351,0.05495 c 0.0935,-1.805837 -0.40292,-2.798393 -1.33302,-2.665357 -1.04736,0.149805 -1.01647,1.039031 0.0921,2.650231 0.54839,0.797053 1.03524,1.449187 1.0819,1.449187 0.0467,0 0.11823,-0.645328 0.15906,-1.434061 z m -56.44973,0.799799 c 0.45461,-0.172842 0.97447,-0.712842 1.15524,-1.2 0.18077,-0.487156 0.51588,-1.029738 0.74469,-1.205738 0.33321,-0.256307 0.22289,-0.838512 -0.55425,-2.925037 l -0.97026,-2.605037 -1.46016,-0.142262 c -0.97094,-0.09459 -1.95682,-0.493309 -2.94252,-1.190026 -1.35086,-0.954819 -4.43765,-1.770649 -4.43765,-1.172857 0,0.114406 0.67328,1.537132 1.49617,3.161616 0.82288,1.624483 1.73651,3.817606 2.03027,4.873606 0.38661,1.389766 0.74668,2.029162 1.30384,2.315283 0.93097,0.47809 2.51161,0.517427 3.63463,0.09046 z m -7.02228,-3.209985 c 0.11022,-0.178339 -0.16928,-1.13174 -0.62111,-2.118672 -0.45183,-0.986928 -0.82152,-2.037164 -0.82152,-2.333856 0,-0.615952 -2.36974,-3.259404 -3.41896,-3.813859 -0.7713,-0.40759 -4.05758,-0.513795 -3.8877,-0.125641 0.0587,0.134048 0.51495,1.28526 1.01397,2.558256 0.90976,2.320771 2.01461,3.598022 3.11239,3.598022 0.31536,0 0.63365,-0.252 0.70732,-0.56 0.11957,-0.499923 0.15921,-0.491341 0.3695,0.08 0.6712,1.823654 0.90621,2.146848 1.8637,2.563014 1.26672,0.55057 1.42751,0.565168 1.68241,0.152736 z m 34.35434,-1.67575 c 0.50784,-1.1 1.73378,-3.056944 2.72431,-4.348765 2.78462,-3.631606 2.85776,-4.881718 0.35872,-6.131235 -2.0111,-1.005552 -2.35742,-1.908333 -2.38193,-6.209123 -0.0156,-2.734026 -0.13342,-3.412967 -0.8583,-4.945229 -0.83536,-1.765802 -0.84346,-1.772125 -1.39596,-1.089814 -2.31402,2.857692 -2.58945,15.577187 -0.48187,22.252662 0.29025,0.919328 0.58404,1.851504 0.65285,2.071504 0.21888,0.699722 0.43708,0.447142 1.38218,-1.6 z m 28.17374,-3.44 c 0.019,-1.144 -0.20897,-4.096 -0.50655,-6.56 l -0.54105,-4.48 -1.56473,-1.058157 -1.56473,-1.05816 0.1294,2.81816 c 0.0712,1.549984 0.5123,4.393821 0.98031,6.319632 0.468,1.925811 0.94346,4.199136 1.05657,5.051831 0.1402,1.056854 0.42123,1.701635 0.88287,2.025612 0.6251,0.438698 0.69321,0.419322 0.88531,-0.251827 0.11445,-0.399901 0.22363,-1.663091 0.2426,-2.807091 z m -19.05384,-2.025693 c 0.0479,-1.101184 -0.74683,-1.526579 -1.57224,-0.841549 -0.4751,0.394298 -0.64026,2.6772 -0.26453,3.656343 0.29071,0.757577 1.78069,-1.525757 1.83677,-2.814794 z m 34.603133,2.472221 c 0.352,-0.224557 1.936,-0.777699 3.52,-1.22921 1.584,-0.451507 3.18755,-0.979641 3.56344,-1.173628 0.43047,-0.222157 1.0523,-1.295056 1.68,-2.898663 1.13848,-2.908528 1.17578,-3.214022 0.51545,-4.221814 -0.45313,-0.691559 -0.43924,-0.732784 0.23881,-0.708739 0.63902,0.02266 0.74282,-0.172263 0.92366,-1.734474 0.11205,-0.968 0.36458,-2.165373 0.56118,-2.660832 0.80051,-2.01737 0.15057,-2.782426 -1.70509,-2.007082 -1.32301,0.552791 -3.47042,2.465034 -4.32995,3.855773 -0.47887,0.774829 -1.1416,1.226547 -2.55632,1.742378 -2.40098,0.87544 -2.70062,1.308301 -0.91007,1.314662 2.05563,0.0073 2.46499,0.448077 0.86215,0.928301 -1.90082,0.569501 -4.51241,3.253926 -5.05351,5.194451 -0.41085,1.47344 -0.25995,3.253821 0.33897,3.999315 0.32586,0.405616 1.36523,0.228605 2.35128,-0.400438 z M 97.121177,77.018227 c 0.19519,-0.129306 0.54181,-0.757651 0.77026,-1.396323 0.35616,-0.995706 0.33978,-1.350116 -0.1149,-2.486474 -0.43644,-1.090762 -0.53027,-2.548765 -0.53027,-8.239997 v -6.914739 l -1.04,-1.207162 c -0.572,-0.663939 -1.30991,-1.596224 -1.63979,-2.071744 -0.62639,-0.902896 -2.27593,-1.758662 -3.38993,-1.758662 -0.46246,0 -0.64887,0.207946 -0.64542,0.72 0.008,1.126627 0.71818,3.143994 1.66504,4.727139 1.19192,1.99288 1.76141,4.72697 2.32918,11.18233 0.61825,7.029273 0.78117,7.680729 1.92092,7.680729 0.176,0 0.47971,-0.105792 0.67491,-0.235097 z m -10.27491,-2.932752 c 0.352,-0.53928 0.748,-0.980922 0.88,-0.981427 0.132,-6.4e-4 0.23611,-1.836922 0.23135,-4.080922 l -0.009,-4.08 -1.08976,1.17175 c -2.42663,2.6092 -3.41946,10.486544 -1.1639,9.234701 0.28103,-0.155977 0.79897,-0.724825 1.15097,-1.264102 z m -12.01859,-1.90761 c 0.17384,-0.324822 0.22708,-0.679587 0.11831,-0.788361 -0.23112,-0.23112 0.76211,-8.225306 1.20133,-9.669098 0.33059,-1.086707 0.41496,-6.53728 0.1012,-6.53728 -0.10877,0 -0.67611,0.42 -1.26076,0.933334 -0.58466,0.513335 -1.29311,1.062106 -1.57435,1.219492 -0.43449,0.243152 -0.54095,1.345872 -0.70843,7.337379 -0.14448,5.168969 -0.0985,7.112131 0.1721,7.279395 0.20306,0.125494 0.36919,0.512739 0.36919,0.860544 0,0.530768 0.10166,0.577971 0.63267,0.293782 0.34797,-0.186227 0.7749,-0.604361 0.94874,-0.929187 z m 7.20121,0.176733 c 0.2356,-0.66664 0.14703,-1.176445 -0.4,-2.30241 -0.56907,-1.171299 -0.70262,-2.010441 -0.70262,-4.414793 0,-2.552423 -0.11617,-3.201728 -0.82862,-4.63144 -0.45574,-0.914557 -0.93767,-1.662829 -1.07096,-1.662829 -0.5262,0 -2.03901,7.210925 -2.06965,9.865171 -0.0345,2.985987 0.32311,3.570381 2.1904,3.579728 0.53836,0.0026 1.19483,0.144355 1.45883,0.3148 0.68283,0.440845 1.07533,0.23441 1.42262,-0.748227 z m -23.23992,-3.143734 c -0.0997,-1.764647 -0.29791,-2.41169 -1.08251,-3.533946 -1.19446,-1.708525 -3.65056,-3.39352 -5.34035,-3.663728 -1.2563,-0.20089 -1.26591,-0.212458 -0.51989,-0.626029 0.41803,-0.231747 1.3321,-0.426461 2.03126,-0.432694 1.20103,-0.01072 1.23474,-0.03688 0.61071,-0.473962 -0.36326,-0.254445 -1.32897,-0.63095 -2.14602,-0.836688 -1.16652,-0.293731 -1.96479,-0.84952 -3.71714,-2.588032 -2.73379,-2.712192 -4.76775,-3.682672 -6.03437,-2.879222 -0.33166,0.210377 -0.28179,0.603149 0.24683,1.944275 0.36435,0.924355 0.76886,2.423514 0.89893,3.331466 0.1998,1.394761 0.35082,1.6671 0.97363,1.75576 0.71192,0.101347 0.71906,0.13255 0.20852,0.911728 -0.51143,0.78054 -0.48111,0.905078 0.93215,3.828304 1.64778,3.408297 1.90273,3.596288 5.77162,4.255625 1.21883,0.207715 2.73083,0.602211 3.36,0.876659 3.34319,1.458333 3.97708,1.147012 3.80663,-1.869516 z m 11.70365,-1.627738 c 0.0911,-0.748 0.23721,-4.312 0.32477,-7.92 0.16963,-6.98919 0.49489,-8.970678 1.94095,-11.824342 0.43857,-0.865476 0.89125,-2.372103 1.00595,-3.348058 0.18078,-1.538102 0.13049,-1.804422 -0.37753,-1.999366 -0.99721,-0.382669 -3.40571,1.181376 -4.14286,2.690326 -0.35331,0.723213 -0.99981,1.695411 -1.43668,2.160438 -0.90744,0.965917 -0.91021,1.077687 -0.26277,10.573549 0.28233,4.140778 0.28235,5.80769 6e-5,6.928736 -0.29934,1.18881 -0.28439,1.684736 0.0768,2.547453 0.58638,1.400563 0.76306,1.551264 1.81868,1.551264 0.8043,0 0.90251,-0.12689 1.05262,-1.36 z m 14.61333,-1.701462 c 2.9812,-3.59984 3.04029,-3.993626 1.07661,-7.175031 -0.60295,-0.97687 -1.09629,-1.953289 -1.09629,-2.169817 0,-0.486957 -0.52635,-0.516461 -0.81723,-0.04581 -0.13431,0.217318 -0.32799,0.234896 -0.51604,0.04684 -0.18806,-0.188057 -0.0929,-0.737469 0.25347,-1.463865 0.30498,-0.639552 0.46297,-1.254356 0.3511,-1.366231 -0.21896,-0.218957 -2.89314,1.404375 -3.86043,2.343434 -0.46664,0.453014 -0.54972,0.864649 -0.39958,1.979654 0.21942,1.62952 0.59942,2.194451 1.56937,2.333075 0.65598,0.09375 0.69843,0.283847 0.77166,3.455146 0.0798,3.454032 0.19184,4.164064 0.65732,4.164064 0.14835,0 1.05287,-0.945658 2.01004,-2.101462 z m 18.705503,-0.74785 c -0.24806,-1.468291 -0.46658,-1.606352 -1.05393,-0.665866 -0.3314,0.530653 -0.31187,0.820458 0.11026,1.636768 0.69159,1.337402 1.23858,0.774634 0.94367,-0.970902 z m -4.047973,0.04928 c 0.21025,-0.392861 0.0677,-1.228679 -0.47738,-2.8 -0.4274,-1.231984 -0.70317,-1.879968 -0.61283,-1.439968 0.0903,0.44 0.16623,1.7 0.16864,2.8 0.004,1.984022 0.34528,2.516765 0.92157,1.439965 z m 23.813433,-1.884762 c 2.01151,-1.017945 6.0091,-4.915203 5.04175,-4.915203 -0.96395,0 -2.25239,0.691395 -2.25239,1.208669 0,0.330787 -0.24452,0.419197 -0.84299,0.304793 -0.98053,-0.187443 -2.8366,0.788877 -3.36041,1.767629 -0.58279,1.088951 -0.89882,2.478909 -0.56362,2.478909 0.16956,0 1.05951,-0.38016 1.97766,-0.844797 z m -20.63663,-3.109008 c 0.0602,-1.606112 -0.0436,-2.672627 -0.28886,-2.968192 -0.21058,-0.253728 -0.62532,-1.205043 -0.92165,-2.114032 -0.42115,-1.291894 -0.72044,-1.701293 -1.37089,-1.875251 -0.457663,-0.122397 -0.913233,-0.141434 -1.012363,-0.0423 -0.46401,0.464007 -0.0949,3.276682 0.660513,5.033578 0.45407,1.056 1.06265,2.535574 1.35241,3.287946 0.33831,0.878451 0.69859,1.335235 1.00683,1.276531 0.3681,-0.07011 0.50192,-0.675843 0.57401,-2.598282 z m -11.778093,2.113802 c -0.002,-0.132 -0.35613,-1.342227 -0.78641,-2.689392 -0.43028,-1.347165 -0.95357,-3.723165 -1.16287,-5.28 -0.30733,-2.286077 -0.52884,-2.969117 -1.15143,-3.550608 -1.00673,-0.940266 -1.21884,-0.910048 -1.69587,0.241616 -0.91727,2.214464 0.40111,6.556246 3.04035,10.012752 1.04501,1.368618 1.76684,1.8888 1.75623,1.265632 z m 28.077743,-1.551869 c 1.19149,-0.457526 2.81434,-1.074214 3.60634,-1.370416 1.46401,-0.547526 2.14683,-1.41807 2.31574,-2.952406 0.10618,-0.964413 -0.0869,-0.941069 -3.87145,0.467997 -3.13997,1.169084 -4.59839,2.240899 -5.13198,3.771555 -0.27914,0.800745 -0.24189,0.915139 0.298,0.915139 0.33936,0 1.59187,-0.374339 2.78335,-0.831869 z M 61.513977,57.663126 c 0.365,-0.883744 0.35988,-1.147766 -0.0341,-1.757251 -0.255,-0.39449 -0.59188,-0.637991 -0.74862,-0.541117 -0.32969,0.203763 -0.3894,2.807302 -0.0717,3.125034 0.33649,0.336492 0.3989,0.276105 0.85437,-0.826666 z m -20.45247,-1.76 c -0.28235,-0.66 -0.59307,-1.394029 -0.69049,-1.631174 -0.25397,-0.618167 -2.94102,-1.699482 -3.65784,-1.471975 -0.39482,0.125309 -0.79612,-0.0421 -1.15585,-0.482179 -0.31075,-0.380163 -1.10923,-0.762733 -1.83106,-0.877299 l -1.28,-0.203162 1.92,1.857783 c 1.16533,1.127558 2.79691,2.280368 4.15098,2.932892 2.93381,1.413818 3.19698,1.4009 2.54426,-0.124886 z m 65.057103,-4.16 c -0.11129,-3.288198 -0.42931,-6.658739 -0.82275,-8.72 -0.35274,-1.848 -0.63256,-3.981818 -0.62183,-4.741821 0.0167,-1.183504 -0.15675,-1.562323 -1.2086,-2.639523 -0.67546,-0.691734 -1.32396,-1.149917 -1.44111,-1.018179 -0.67905,0.763641 -1.25805,3.670323 -1.25805,6.315603 0,3.748224 0.90166,7.426067 2.74973,11.216074 0.77565,1.590684 1.41027,3.07615 1.41027,3.301036 0,0.63737 0.62408,1.64681 1.01813,1.64681 0.25389,0 0.30372,-1.533296 0.17421,-5.36 z m -40.352343,4.04 c -0.11,-0.55 -0.21224,-1.738 -0.22721,-2.64 l -0.0272,-1.64 -0.39152,1.611427 c -0.21534,0.886285 -0.49775,1.783309 -0.62759,1.993386 -0.32329,0.523097 0.34023,1.675187 0.96479,1.675187 0.39913,0 0.46565,-0.215469 0.30875,-1 z m 56.990263,-0.532 c 2.54374,-1.157882 4.24974,-2.687421 4.24974,-3.81017 0,-0.68734 -0.44125,-0.5035 -3.41347,1.42217 -1.56199,1.012 -3.12495,1.999434 -3.47325,2.194298 -0.7386,0.413222 -1.0354,1.409097 -0.41674,1.398336 0.2329,-0.0041 1.60708,-0.546138 3.05372,-1.204634 z M 75.380347,54.317187 c 0.70503,-0.460858 1.62808,-2.177133 2.32018,-4.314067 0.2102,-0.649002 0.6825,-1.561805 1.04957,-2.028448 0.36706,-0.466644 0.84515,-1.663642 1.06242,-2.659994 0.21728,-0.996355 0.50016,-2.063552 0.62864,-2.371552 0.17142,-0.410963 0.0821,-0.56 -0.33545,-0.56 -0.62881,0 -1.73944,0.878838 -1.73944,1.37641 0,0.17447 -0.65662,1.0192 -1.45915,1.877177 -1.70689,1.824803 -2.14389,2.762778 -2.82586,6.065456 -0.277,1.341475 -0.59997,2.690093 -0.71772,2.996928 -0.18005,0.469207 -0.0919,0.519251 0.55433,0.314835 0.42262,-0.13368 1.08074,-0.447212 1.46248,-0.696745 z m 22.82592,0.375661 c 0,-0.891024 -0.86383,-2.577927 -1.95863,-3.824832 -0.80187,-0.91328 -0.89176,-1.112612 -0.35026,-0.776727 0.6328,0.392525 0.7685,0.388829 1.03376,-0.02816 0.16793,-0.264 0.3139,-0.768 0.32438,-1.12 0.0134,-0.451302 0.2148,-0.262601 0.68298,0.64 0.93782,1.808023 1.53272,2.4 2.411873,2.4 0.70521,0 0.74969,-0.09364 0.56994,-1.2 -0.36488,-2.245885 -1.149133,-3.877235 -2.412733,-5.018822 -0.69372,-0.626736 -1.26131,-1.310768 -1.26131,-1.52008 0,-0.662621 -2.94506,-6.763335 -3.95378,-8.190272 -1.65581,-2.342317 -3.16406,-2.162871 -3.51788,0.418541 -0.10874,0.793328 -0.47515,2.05176 -0.81423,2.796521 -0.68643,1.507639 -0.59149,2.896131 0.26762,3.914109 0.29706,0.352 0.78452,1.033715 1.08324,1.514918 0.29872,0.481207 0.89394,0.962967 1.3227,1.07058 0.63446,0.159241 0.71729,0.295379 0.44498,0.731411 -0.45525,0.728969 2.4864,6.211049 4.10123,7.643091 1.26701,1.123587 2.02612,1.329546 2.02612,0.549722 z m -34.82122,-4.15209 c 0.99256,-2.775117 1.22984,-3.856582 1.15518,-5.265059 -0.0851,-1.605159 -0.16782,-1.782999 -0.87603,-1.882963 -0.9261,-0.13072 -1.61793,0.66303 -1.61793,1.856291 0,0.452966 -0.30403,1.390832 -0.67562,2.084144 -0.59523,1.110569 -0.64893,1.566576 -0.45129,3.832272 0.36829,4.222025 0.76845,4.120646 2.46569,-0.624685 z m -16.37878,2.88329 c 0,-0.263492 -0.51279,-1.046679 -1.13953,-1.740413 -0.8295,-0.918154 -1.67839,-1.435338 -3.12,-1.900874 -3.34764,-1.08103 -5.98859,-1.738176 -6.18721,-1.539555 -0.10412,0.104122 0.0798,0.844128 0.40872,1.644461 0.68504,1.66687 1.46241,2.132947 4.52096,2.71056 1.10161,0.208041 2.46961,0.581117 3.04,0.829053 1.38249,0.600947 2.47706,0.59952 2.47706,-0.0032 z m 62.056773,-0.684077 c 0.36478,-0.463735 0.66323,-1.203133 0.66323,-1.643104 0,-0.439975 0.16576,-1.699581 0.36836,-2.799127 0.33427,-1.814134 0.29925,-2.21 -0.37836,-4.276896 -0.4107,-1.252745 -0.86114,-2.277718 -1.00098,-2.277718 -0.13985,0 -0.50959,0.389347 -0.82164,0.865219 -0.45388,0.692138 -0.58972,1.718752 -0.67907,5.131975 -0.0614,2.346713 -0.0227,4.621366 0.0861,5.05478 0.25661,1.022423 0.93137,1.001316 1.76236,-0.05513 z M 83.221107,52.383126 c 0.44802,-0.484 1.07849,-1.342035 1.40104,-1.906749 0.5185,-0.907776 0.53455,-1.123744 0.13845,-1.863862 -0.42409,-0.7924 -0.47145,-0.805927 -0.8867,-0.253251 -0.81134,1.079859 -1.98763,3.596928 -1.98763,4.253225 0,0.880928 0.36518,0.818183 1.33484,-0.229363 z m 33.217753,-0.329654 c 0.50315,-0.407424 0.67273,-0.840301 0.59545,-1.52 l -0.10804,-0.950346 -1.2,1.168 c -0.66,0.6424 -1.2,1.3264 -1.2,1.52 0,0.54456 1.13012,0.415949 1.91259,-0.217654 z M 92.126267,51.285436 c 0,-0.686668 -2.64885,-4.461456 -2.932,-4.178304 -0.46932,0.469319 0.0727,2.19522 1.06886,3.403799 0.93292,1.131792 1.86314,1.518483 1.86314,0.774505 z m -9.00089,-4.39816 c 0.37712,-0.876659 0.80477,-2.464726 0.95032,-3.529036 0.28727,-2.100532 0.15318,-2.259744 -1.33295,-1.582618 -0.63552,0.289562 -0.80481,0.654486 -0.94822,2.043994 -0.096,0.930323 -0.40266,2.13255 -0.68142,2.671612 -0.27876,0.539063 -0.50684,1.501072 -0.50684,2.137796 v 1.157683 l 0.91671,-0.652752 c 0.50419,-0.359015 1.22527,-1.370019 1.6024,-2.246679 z m -40.02843,1.17585 c -0.0675,-0.22 -0.69146,-0.693968 -1.38667,-1.053264 -0.6952,-0.359293 -2.50261,-1.331293 -4.01646,-2.16 -1.51386,-0.828704 -2.91786,-1.506736 -3.12,-1.506736 -0.63978,0 -0.37761,0.760672 0.68447,1.985965 0.75877,0.875369 1.69843,1.436269 3.58798,2.141715 2.74507,1.024848 4.45644,1.263322 4.25068,0.59232 z m 44.37118,-0.311203 c 0.63469,-0.906141 0.70691,-4.728797 0.0894,-4.728797 -1.52965,0 -2.59666,2.632026 -1.82361,4.498339 0.46511,1.122887 1.05434,1.201184 1.73426,0.230458 z m -28.78807,-2.181968 c 0.39312,-1.312755 0.9469,-2.824807 1.23064,-3.360115 1.90198,-3.588327 2.55748,-11.994889 1.23667,-15.85995 -1.14534,-3.351597 -1.28387,-3.436355 -2.71765,-1.662655 -1.16174,1.437178 -1.21292,1.599378 -1.13602,3.600434 0.0443,1.152501 -0.10953,3.890702 -0.34182,6.084887 -0.2455,2.318912 -0.33682,5.132816 -0.2181,6.72 0.4267,5.704717 0.60621,7.072666 0.91459,6.969872 0.17432,-0.05811 0.63858,-1.179721 1.03169,-2.492473 z m 9.10504,-1.521523 c 1.0509,-1.10377 1.85858,-2.468589 2.87651,-4.860685 1.27268,-2.990765 1.36196,-3.359655 0.88582,-3.659997 -0.45774,-0.288733 -0.38933,-0.399786 0.50467,-0.819315 0.5688,-0.266919 1.25141,-0.917309 1.51692,-1.445309 0.2655,-0.528 0.7335,-1.316042 1.04,-1.751203 0.73871,-1.048827 0.70288,-2.486014 -0.0946,-3.794023 -0.35719,-0.585874 -0.86103,-1.881874 -1.11963,-2.88 -0.43082,-1.662771 -1.10121,-2.614775 -1.84131,-2.614775 -0.44258,0 -1.92078,1.708505 -2.52698,2.92069 -0.95504,1.909731 -3.14025,7.633996 -3.14025,8.226034 0,0.315447 -0.44518,0.99648 -0.9893,1.513408 -1.44201,1.369949 -2.21146,3.090151 -2.43025,5.433152 -0.1782,1.908298 -0.14466,2.066717 0.4375,2.066717 0.87026,0 1.85446,-1.141498 2.62107,-3.04 0.4952,-1.226346 0.6513,-1.413171 0.66843,-0.8 0.0123,0.44 0.16141,1.016 0.33136,1.28 0.27152,0.421776 0.4311,0.411056 1.31558,-0.08835 l 1.00657,-0.568349 -0.99449,1.132669 c -1.24748,1.420803 -1.84967,2.576032 -2.13464,4.095088 -0.30905,1.647341 0.26002,1.552154 2.067,-0.345752 z m -12.25902,-0.269956 c 0.2652,-1.056668 -0.0752,-6.862886 -0.52546,-8.96231 -0.18528,-0.86393 -0.66502,-1.982323 -1.0661,-2.485325 l -0.72924,-0.914547 -0.74356,2.504707 c -0.72242,2.433469 -0.72916,2.568947 -0.23688,4.763415 0.27868,1.242291 0.59646,2.719948 0.70619,3.283683 0.23448,1.204729 1.29003,2.655027 1.93237,2.655027 0.24788,0 0.54608,-0.380093 0.66268,-0.84465 z m 43.10461,-4.35535 c -0.19204,-4.040576 -0.76722,-5.743776 -2.40515,-7.122 -0.75906,-0.638707 -1.06778,-0.736509 -1.41507,-0.448285 -0.58907,0.488883 -0.56735,2.740755 0.0431,4.471005 0.6461,1.831232 3.31088,6.69928 3.66721,6.69928 0.15481,0 0.20416,-1.616554 0.10989,-3.6 z m -20.83673,2.72 c 1.10331,-1.268998 5.54714,-10.474144 5.89422,-12.20952 0.26409,-1.320441 -0.34773,-1.295512 -1.03957,0.04236 -0.50172,0.970228 -2.061,3.441447 -4.49705,7.127162 -0.58163,0.88 -1.18554,2.248 -1.34202,3.04 -0.15648,0.792 -0.38964,1.692 -0.51813,2 -0.17598,0.421862 -0.0795,0.56 0.39103,0.56 0.34355,0 0.84374,-0.252 1.11152,-0.56 z m -3.95015,-2.434794 c 0.94344,-1.004246 1.51212,-3.032166 0.9881,-3.523571 -0.24495,-0.229705 -0.43221,-0.244896 -0.51331,-0.04163 -0.0702,0.176 -0.61747,1.107133 -1.21612,2.069187 -0.59865,0.962051 -1.0187,1.862051 -0.93345,2 0.28487,0.460928 0.95882,0.258119 1.67478,-0.503981 z m 10.76382,-0.263443 c 1.42433,-1.120381 4.59115,-5.616982 4.9844,-7.077414 0.46149,-1.71384 -0.0298,-4.084919 -1.21091,-5.843946 -0.99599,-1.483334 -1.30782,-1.728939 -2.20348,-1.735503 -0.79545,-0.0058 -1.41137,1.163261 -1.41137,2.678969 0,1.881037 -1.23664,6.056445 -2.55364,8.622109 -1.24645,2.428243 -1.51702,3.396691 -1.07302,3.840688 0.48523,0.485238 2.61288,0.187747 3.46802,-0.484903 z m -6.02134,-4.662381 c 1.46749,-2.185929 2.67836,-4.590767 2.47621,-4.917849 -0.39811,-0.644165 -1.84028,-0.241474 -2.88823,0.806467 -1.03301,1.033014 -1.088,1.202822 -1.088,3.36 0,1.2496 0.108,2.271722 0.24,2.271382 0.132,-3.2e-4 0.69901,-0.684342 1.26002,-1.52 z M 100.44218,34.60424 c -0.002,-0.737613 -0.36058,-2.45737 -0.796303,-3.821684 -0.43572,-1.364311 -0.88386,-3.053592 -0.99585,-3.753957 -0.26221,-1.639799 -0.82401,-2.139507 -1.56842,-1.39509 -0.46855,0.468541 -0.51989,0.919912 -0.33794,2.971046 0.118,1.330214 0.45935,2.856616 0.75857,3.392001 1.69706,3.036528 2.48518,4.232384 2.701313,4.098807 0.1335,-0.08251 0.24088,-0.753511 0.23863,-1.491123 z m -7.927913,-3.821114 c -0.0936,-1.409897 -0.31521,-2.188833 -0.75095,-2.64 -0.88696,-0.918363 -1.21449,-0.196617 -0.84166,1.854659 0.35307,1.942544 0.75135,2.785341 1.31629,2.785341 0.30274,0 0.37461,-0.520192 0.27632,-2 z m -26.7479,-0.8 c 1.73322,-3.757542 2.3599,-5.772828 2.3599,-7.588936 0,-3.29299 -1.43477,-3.472437 -3.19693,-0.399839 -0.93488,1.630104 -0.95713,1.770739 -0.96006,6.068775 -0.002,2.794186 0.11673,4.4 0.32507,4.4 0.18045,0 0.84285,-1.116 1.47202,-2.48 z m 12.16568,-0.9649 c 0.37532,-0.241236 2.85104,-5.825562 3.72863,-8.410451 0.56273,-1.657486 0.74134,-4.208576 0.38703,-5.528079 -0.1527,-0.568697 -0.1051,-1.040909 0.12847,-1.274481 0.28141,-0.281403 0.4162,-0.198427 0.5579,0.343429 0.22346,0.854542 0.36194,0.877258 1.127,0.184885 0.99741,-0.902644 0.54447,-3.950404 -0.58709,-3.950404 -0.45342,0 -2.92326,3.630749 -3.18517,4.682304 -0.1257,0.504733 -0.40335,1.061696 -0.61699,1.237696 -0.69529,0.572793 -1.76718,4.915808 -1.87809,7.609561 -0.0596,1.446742 -0.21653,3.24244 -0.34879,3.99044 -0.23404,1.323635 -0.0648,1.598357 0.6871,1.1151 z m 3.84735,-0.806439 c 0.38121,-0.213764 1.00994,-0.792643 1.39718,-1.286399 0.59391,-0.757299 0.68241,-1.196834 0.56575,-2.809691 -0.0808,-1.116826 -0.33992,-2.113578 -0.62311,-2.396774 -0.4331,-0.433092 -0.59074,-0.252814 -1.47755,1.689692 -1.05769,2.316822 -1.5532,4.315578 -1.20823,4.873748 0.26399,0.427143 0.47839,0.4159 1.34596,-0.07058 z M 65.080067,17.181572 c 0.21405,-2.704556 0.18347,-2.941176 -0.46373,-3.588379 -0.91116,-0.911165 -1.6092,-0.379029 -1.61231,1.229114 -10e-4,0.63845 -0.29932,2.384818 -0.66241,3.880818 -0.69776,2.874839 -0.85714,4.825086 -0.48865,5.979217 0.18901,0.592006 0.43596,0.292548 1.61058,-1.953033 1.22784,-2.347314 1.41369,-2.985151 1.61652,-5.547737 z m 11.2923,4.63371 c 0.48771,-0.614097 1.15589,-3.612691 0.93393,-4.191129 -0.59181,-1.542235 -3.1974,0.717067 -3.55149,3.079497 -0.19667,1.31214 -0.10476,1.746781 0.67064,3.171445 l 0.89854,1.65092 0.36847,-1.659288 c 0.20266,-0.912608 0.50862,-1.835758 0.67991,-2.051445 z m -5.14416,-2.156055 c 0.57114,-1.668985 0.53745,-4.476102 -0.0537,-4.476102 -0.81667,0 -1.40824,1.664891 -1.34621,3.788725 0.0459,1.572319 0.1579,1.966663 0.53799,1.894549 0.264,-0.05009 0.65188,-0.593316 0.86194,-1.207172 z m 62.758063,38.505304 c 0.231,-0.09244 0.507,-0.08107 0.61333,0.02525 0.10634,0.106333 -0.0827,0.181965 -0.42,0.16807 -0.37278,-0.01536 -0.4486,-0.09118 -0.19333,-0.193331 z m -10.73391,-9.283162 c 0.31135,-0.08113 0.74335,-0.0758 0.96,0.01187 0.21665,0.08766 -0.0381,0.154039 -0.56609,0.147517 -0.528,-0.0065 -0.70526,-0.07824 -0.39391,-0.159373 z M 67.831537,5.7164587 c 0.0154,-0.3727817 0.0912,-0.448608 0.19333,-0.1933334 0.0924,0.231 0.0811,0.507 -0.0252,0.6133334 -0.10634,0.1063332 -0.18197,-0.082667 -0.16807,-0.42 z"
       id="path186" />
  </g>
</svg>
